MetropolisNew-BlackItalic.ufo
<glyph name="exclam" format="2">
  <advance width="342"/>
  <unicode hex="0021"/>
  <outline>
    <contour>
      <point x="235" y="274" type="line"/>
      <point x="363" y="687" type="line"/>
      <point x="148" y="687" type="line"/>
      <point x="105" y="274" type="line"/>
    </contour>
    <contour>
      <point x="133" y="-12" type="curve" smooth="yes"/>
      <point x="197" y="-12"/>
      <point x="258" y="46"/>
      <point x="258" y="116" type="curve" smooth="yes"/>
      <point x="258" y="172"/>
      <point x="216" y="219"/>
      <point x="157" y="219" type="curve" smooth="yes"/>
      <point x="90" y="219"/>
      <point x="28" y="165"/>
      <point x="28" y="93" type="curve" smooth="yes"/>
      <point x="28" y="34"/>
      <point x="70" y="-12"/>
    </contour>
  </outline>
  <guideline angle="78.5" x="185" y="219"/>
</glyph>
<glyph name="numbersign" format="2">
  <advance width="692"/>
  <unicode hex="0023"/>
  <outline>
    <contour>
      <point x="161" y="0" type="line"/>
      <point x="477" y="687" type="line"/>
      <point x="339" y="687" type="line"/>
      <point x="23" y="0" type="line"/>
    </contour>
    <contour>
      <point x="388" y="0" type="line"/>
      <point x="704" y="687" type="line"/>
      <point x="566" y="687" type="line"/>
      <point x="250" y="0" type="line"/>
    </contour>
    <contour>
      <point x="539" y="147" type="line"/>
      <point x="600" y="281" type="line"/>
      <point x="71" y="281" type="line"/>
      <point x="10" y="147" type="line"/>
    </contour>
    <contour>
      <point x="657" y="404" type="line"/>
      <point x="718" y="538" type="line"/>
      <point x="185" y="538" type="line"/>
      <point x="124" y="404" type="line"/>
    </contour>
  </outline>
</glyph>
<glyph name="parenleft" format="2">
  <advance width="403"/>
  <unicode hex="0028"/>
  <outline>
    <contour>
      <point x="302" y="-72" type="line"/>
      <point x="243" y="2"/>
      <point x="218" y="72"/>
      <point x="218" y="152" type="curve" smooth="yes"/>
      <point x="218" y="322"/>
      <point x="303" y="470"/>
      <point x="447" y="593" type="curve"/>
      <point x="361" y="704" type="line"/>
      <point x="165" y="589"/>
      <point x="35" y="385"/>
      <point x="35" y="168" type="curve" smooth="yes"/>
      <point x="35" y="28"/>
      <point x="93" y="-90"/>
      <point x="193" y="-166" type="curve"/>
    </contour>
  </outline>
</glyph>
<glyph name="hyphen" format="2">
  <advance width="367"/>
  <unicode hex="002D"/>
  <outline>
    <contour>
      <point x="313" y="199" type="line"/>
      <point x="346" y="357" type="line"/>
      <point x="62" y="357" type="line"/>
      <point x="29" y="199" type="line"/>
    </contour>
  </outline>
</glyph>
<glyph name="period" format="2">
  <advance width="319"/>
  <unicode hex="002E"/>
  <outline>
    <contour>
      <point x="117" y="-12" type="curve" smooth="yes"/>
      <point x="181" y="-12"/>
      <point x="242" y="46"/>
      <point x="242" y="116" type="curve" smooth="yes"/>
      <point x="242" y="172"/>
      <point x="200" y="219"/>
      <point x="141" y="219" type="curve" smooth="yes"/>
      <point x="74" y="219"/>
      <point x="12" y="165"/>
      <point x="12" y="93" type="curve" smooth="yes"/>
      <point x="12" y="34"/>
      <point x="54" y="-12"/>
    </contour>
  </outline>
</glyph>
<glyph name="slash" format="2">
  <advance width="546"/>
  <unicode hex="002F"/>
  <outline>
    <contour>
      <point x="136" y="-74" type="line"/>
      <point x="646" y="743" type="line"/>
      <point x="442" y="743" type="line"/>
      <point x="-68" y="-74" type="line"/>
    </contour>
  </outline>
</glyph>
<glyph name="seven" format="2">
  <advance width="618"/>
  <unicode hex="0037"/>
  <outline>
    <contour>
      <point x="263" y="0" type="line"/>
      <point x="640" y="541" type="line"/>
      <point x="668" y="687" type="line"/>
      <point x="126" y="687" type="line"/>
      <point x="90" y="514" type="line"/>
      <point x="407" y="514" type="line"/>
      <point x="40" y="0" type="line"/>
    </contour>
  </outline>
</glyph>
<glyph name="nine" format="2">
  <advance width="678"/>
  <unicode hex="0039"/>
  <outline>
    <contour>
      <point x="397" y="699" type="curve" smooth="yes"/>
      <point x="224" y="699"/>
      <point x="78" y="580"/>
      <point x="78" y="416" type="curve" smooth="yes"/>
      <point x="78" y="303"/>
      <point x="163" y="233"/>
      <point x="281" y="233" type="curve" smooth="yes"/>
      <point x="351" y="233"/>
      <point x="434" y="261"/>
      <point x="480" y="310" type="curve"/>
      <point x="497" y="514" type="line"/>
      <point x="480" y="445"/>
      <point x="417" y="388"/>
      <point x="350" y="388" type="curve" smooth="yes"/>
      <point x="311" y="388"/>
      <point x="279" y="403"/>
      <point x="279" y="435" type="curve" smooth="yes"/>
      <point x="279" y="488"/>
      <point x="337" y="535"/>
      <point x="400" y="535" type="curve" smooth="yes"/>
      <point x="450" y="535"/>
      <point x="469" y="518"/>
      <point x="469" y="473" type="curve" smooth="yes"/>
      <point x="469" y="325"/>
      <point x="393" y="157"/>
      <point x="254" y="157" type="curve" smooth="yes"/>
      <point x="208" y="157"/>
      <point x="174" y="169"/>
      <point x="139" y="199" type="curve"/>
      <point x="30" y="61" type="line"/>
      <point x="84" y="18"/>
      <point x="152" y="-12"/>
      <point x="246" y="-12" type="curve" smooth="yes"/>
      <point x="492" y="-12"/>
      <point x="660" y="196"/>
      <point x="660" y="447" type="curve" smooth="yes"/>
      <point x="660" y="599"/>
      <point x="575" y="699"/>
    </contour>
  </outline>
</glyph>
<glyph name="A" format="2">
  <advance width="767"/>
  <unicode hex="0041"/>
  <anchor x="703" y="0" name="bottom"/>
  <anchor x="469" y="687" name="top"/>
  <outline>
    <contour>
      <point x="541" y="82" type="line"/>
      <point x="570" y="255" type="line"/>
      <point x="151" y="255" type="line"/>
      <point x="122" y="82" type="line"/>
    </contour>
    <contour>
      <point x="363" y="687" type="line"/>
      <point x="-44" y="0" type="line"/>
      <point x="179" y="0" type="line"/>
      <point x="585" y="687" type="line"/>
    </contour>
    <contour>
      <point x="366" y="687" type="line"/>
      <point x="488" y="0" type="line"/>
      <point x="703" y="0" type="line"/>
      <point x="582" y="687" type="line"/>
    </contour>
  </outline>
</glyph>
<glyph name="I" format="2">
  <advance width="326"/>
  <unicode hex="0049"/>
  <anchor x="206" y="0" name="bottom"/>
  <anchor x="252" y="687" name="top"/>
  <outline>
    <contour>
      <point x="206" y="0" type="line"/>
      <point x="349" y="687" type="line"/>
      <point x="155" y="687" type="line"/>
      <point x="12" y="0" type="line"/>
    </contour>
  </outline>
</glyph>
<glyph name="P" format="2">
  <advance width="678"/>
  <unicode hex="0050"/>
  <outline>
    <contour>
      <point x="206" y="0" type="line"/>
      <point x="250" y="207" type="line"/>
      <point x="391" y="207" type="line" smooth="yes"/>
      <point x="563" y="207"/>
      <point x="700" y="324"/>
      <point x="700" y="487" type="curve" smooth="yes"/>
      <point x="700" y="606"/>
      <point x="612" y="687"/>
      <point x="478" y="687" type="curve" smooth="yes"/>
      <point x="155" y="687" type="line"/>
      <point x="12" y="0" type="line"/>
    </contour>
    <contour>
      <point x="313" y="511" type="line"/>
      <point x="438" y="511" type="line" smooth="yes"/>
      <point x="479" y="511"/>
      <point x="502" y="496"/>
      <point x="502" y="471" type="curve" smooth="yes"/>
      <point x="502" y="429"/>
      <point x="450" y="383"/>
      <point x="399" y="383" type="curve" smooth="yes"/>
      <point x="286" y="383" type="line"/>
    </contour>
  </outline>
</glyph>
<glyph name="R" format="2">
  <advance width="721"/>
  <unicode hex="0052"/>
  <outline>
    <contour>
      <point x="6" y="0" type="line"/>
      <point x="200" y="0" type="line"/>
      <point x="244" y="207" type="line"/>
      <point x="309" y="207" type="line"/>
      <point x="434" y="0" type="line"/>
      <point x="650" y="0" type="line"/>
      <point x="511" y="230" type="line"/>
      <point x="621" y="271"/>
      <point x="694" y="368"/>
      <point x="694" y="487" type="curve" smooth="yes"/>
      <point x="694" y="618"/>
      <point x="595" y="687"/>
      <point x="472" y="687" type="curve" smooth="yes"/>
      <point x="149" y="687" type="line"/>
    </contour>
    <contour>
      <point x="280" y="383" type="line"/>
      <point x="307" y="511" type="line"/>
      <point x="432" y="511" type="line" smooth="yes"/>
      <point x="459" y="511"/>
      <point x="496" y="506"/>
      <point x="496" y="471" type="curve" smooth="yes"/>
      <point x="496" y="422"/>
      <point x="439" y="383"/>
      <point x="393" y="383" type="curve" smooth="yes"/>
    </contour>
  </outline>
</glyph>
<glyph name="S" format="2">
  <advance width="650"/>
  <unicode hex="0053"/>
  <anchor x="277" y="0" name="bottom"/>
  <anchor x="417" y="687" name="top"/>
  <outline>
    <contour>
      <point x="293" y="-12" type="curve" smooth="yes"/>
      <point x="475" y="-12"/>
      <point x="619" y="87"/>
      <point x="619" y="240" type="curve" smooth="yes"/>
      <point x="619" y="349"/>
      <point x="547" y="387"/>
      <point x="387" y="424" type="curve" smooth="yes"/>
      <point x="312" y="441"/>
      <point x="288" y="446"/>
      <point x="288" y="471" type="curve" smooth="yes"/>
      <point x="288" y="500"/>
      <point x="321" y="538"/>
      <point x="388" y="538" type="curve" smooth="yes"/>
      <point x="432" y="538"/>
      <point x="502" y="522"/>
      <point x="559" y="473" type="curve"/>
      <point x="675" y="601" type="line"/>
      <point x="606" y="666"/>
      <point x="510" y="699"/>
      <point x="406" y="699" type="curve" smooth="yes"/>
      <point x="216" y="699"/>
      <point x="90" y="589"/>
      <point x="90" y="448" type="curve" smooth="yes"/>
      <point x="90" y="320"/>
      <point x="193" y="293"/>
      <point x="324" y="260" type="curve" smooth="yes"/>
      <point x="403" y="240"/>
      <point x="422" y="238"/>
      <point x="422" y="216" type="curve" smooth="yes"/>
      <point x="422" y="186"/>
      <point x="385" y="149"/>
      <point x="307" y="149" type="curve" smooth="yes"/>
      <point x="244" y="149"/>
      <point x="169" y="173"/>
      <point x="111" y="228" type="curve"/>
      <point x="-15" y="109" type="line"/>
      <point x="56" y="34"/>
      <point x="169" y="-12"/>
    </contour>
  </outline>
</glyph>
<glyph name="backslash" format="2">
  <advance width="538"/>
  <unicode hex="005C"/>
  <outline>
    <contour>
      <point x="468" y="-74" type="line"/>
      <point x="298" y="743" type="line"/>
      <point x="102" y="743" type="line"/>
      <point x="272" y="-74" type="line"/>
    </contour>
  </outline>
</glyph>
<glyph name="underscore" format="2">
  <advance width="666"/>
  <unicode hex="005F"/>
  <outline>
    <contour>
      <point x="544" y="-159" type="line"/>
      <point x="565" y="-61" type="line"/>
      <point x="-31" y="-61" type="line"/>
      <point x="-52" y="-159" type="line"/>
    </contour>
  </outline>
</glyph>
<glyph name="grave" format="2">
  <advance width="292"/>
  <unicode hex="0060"/>
  <anchor x="270" y="517" name="_top"/>
  <anchor x="308" y="704" name="top"/>
  <outline>
    <contour>
      <point x="346" y="574" type="line"/>
      <point x="268" y="738" type="line"/>
      <point x="101" y="710" type="line"/>
      <point x="225" y="574" type="line"/>
    </contour>
  </outline>
</glyph>
<glyph name="c" format="2">
  <advance width="540"/>
  <unicode hex="0063"/>
  <anchor x="247" y="0" name="bottom"/>
  <anchor x="340" y="517" name="top"/>
  <outline>
    <contour>
      <point x="264" y="-12" type="curve" smooth="yes"/>
      <point x="354" y="-12"/>
      <point x="432" y="21"/>
      <point x="496" y="81" type="curve"/>
      <point x="383" y="195" type="line"/>
      <point x="359" y="171"/>
      <point x="314" y="148"/>
      <point x="275" y="148" type="curve" smooth="yes"/>
      <point x="229" y="148"/>
      <point x="197" y="181"/>
      <point x="197" y="225" type="curve" smooth="yes"/>
      <point x="197" y="293"/>
      <point x="270" y="369"/>
      <point x="345" y="369" type="curve" smooth="yes"/>
      <point x="371" y="369"/>
      <point x="404" y="358"/>
      <point x="419" y="335" type="curve"/>
      <point x="559" y="427" type="line"/>
      <point x="519" y="485"/>
      <point x="453" y="529"/>
      <point x="355" y="529" type="curve" smooth="yes"/>
      <point x="188" y="529"/>
      <point x="16" y="391"/>
      <point x="16" y="222" type="curve" smooth="yes"/>
      <point x="16" y="91"/>
      <point x="120" y="-12"/>
    </contour>
  </outline>
</glyph>
<glyph name="k" format="2">
  <advance width="616"/>
  <unicode hex="006B"/>
  <anchor x="271" y="0" name="bottom"/>
  <outline>
    <contour>
      <point x="203" y="0" type="line"/>
      <point x="348" y="699" type="line"/>
      <point x="155" y="699" type="line"/>
      <point x="10" y="0" type="line"/>
    </contour>
    <contour>
      <point x="217" y="110" type="line"/>
      <point x="638" y="517" type="line"/>
      <point x="418" y="517" type="line"/>
      <point x="264" y="332" type="line"/>
    </contour>
    <contour>
      <point x="277" y="185" type="line"/>
      <point x="339" y="0" type="line"/>
      <point x="550" y="0" type="line"/>
      <point x="420" y="314" type="line"/>
    </contour>
  </outline>
</glyph>
<glyph name="l" format="2">
  <advance width="321"/>
  <unicode hex="006C"/>
  <anchor x="163" y="0" name="bottom"/>
  <anchor x="250" y="699" name="top"/>
  <outline>
    <contour>
      <point x="203" y="0" type="line"/>
      <point x="348" y="699" type="line"/>
      <point x="155" y="699" type="line"/>
      <point x="10" y="0" type="line"/>
    </contour>
  </outline>
</glyph>
<glyph name="m" format="2">
  <advance width="952"/>
  <unicode hex="006D"/>
  <anchor x="195" y="0" name="bottom"/>
  <anchor x="207" y="517" name="top"/>
  <outline>
    <contour>
      <point x="195" y="0" type="line"/>
      <point x="303" y="517" type="line"/>
      <point x="110" y="517" type="line"/>
      <point x="2" y="0" type="line"/>
    </contour>
    <contour>
      <point x="525" y="0" type="line"/>
      <point x="591" y="318"/>
      <point x="597" y="337"/>
      <point x="597" y="365" type="curve" smooth="yes"/>
      <point x="597" y="461"/>
      <point x="525" y="530"/>
      <point x="428" y="530" type="curve" smooth="yes"/>
      <point x="343" y="530"/>
      <point x="276" y="476"/>
      <point x="258" y="388" type="curve"/>
      <point x="256" y="293" type="line"/>
      <point x="263" y="331"/>
      <point x="307" y="370"/>
      <point x="358" y="370" type="curve" smooth="yes"/>
      <point x="398" y="370"/>
      <point x="404" y="345"/>
      <point x="406" y="323" type="curve" smooth="yes"/>
      <point x="407" y="312"/>
      <point x="388" y="227"/>
      <point x="341" y="0" type="curve"/>
    </contour>
    <contour>
      <point x="855" y="0" type="line"/>
      <point x="921" y="318"/>
      <point x="927" y="337"/>
      <point x="927" y="365" type="curve" smooth="yes"/>
      <point x="927" y="461"/>
      <point x="855" y="530"/>
      <point x="758" y="530" type="curve" smooth="yes"/>
      <point x="673" y="530"/>
      <point x="606" y="476"/>
      <point x="588" y="388" type="curve"/>
      <point x="586" y="293" type="line"/>
      <point x="593" y="331"/>
      <point x="637" y="370"/>
      <point x="688" y="370" type="curve" smooth="yes"/>
      <point x="728" y="370"/>
      <point x="734" y="345"/>
      <point x="736" y="323" type="curve" smooth="yes"/>
      <point x="737" y="312"/>
      <point x="718" y="227"/>
      <point x="671" y="0" type="curve"/>
    </contour>
  </outline>
</glyph>
<glyph name="n" format="2">
  <advance width="626"/>
  <unicode hex="006E"/>
  <anchor x="267" y="0" name="bottom"/>
  <anchor x="372" y="517" name="top"/>
  <outline>
    <contour>
      <point x="195" y="0" type="line"/>
      <point x="303" y="517" type="line"/>
      <point x="110" y="517" type="line"/>
      <point x="2" y="0" type="line"/>
    </contour>
    <contour>
      <point x="528" y="0" type="line"/>
      <point x="592" y="305"/>
      <point x="600" y="331"/>
      <point x="600" y="369" type="curve" smooth="yes"/>
      <point x="600" y="462"/>
      <point x="537" y="529"/>
      <point x="436" y="529" type="curve" smooth="yes"/>
      <point x="343" y="529"/>
      <point x="264" y="475"/>
      <point x="241" y="387" type="curve"/>
      <point x="253" y="282" type="line"/>
      <point x="261" y="328"/>
      <point x="306" y="369"/>
      <point x="356" y="369" type="curve" smooth="yes"/>
      <point x="388" y="369"/>
      <point x="408" y="351"/>
      <point x="408" y="317" type="curve" smooth="yes"/>
      <point x="408" y="302"/>
      <point x="405" y="289"/>
      <point x="344" y="0" type="curve"/>
    </contour>
  </outline>
</glyph>
<glyph name="o" format="2">
  <advance width="626"/>
  <unicode hex="006F"/>
  <anchor x="363" y="517" name="top"/>
  <outline>
    <contour>
      <point x="269" y="-12" type="curve" smooth="yes"/>
      <point x="456" y="-12"/>
      <point x="609" y="127"/>
      <point x="609" y="296" type="curve" smooth="yes"/>
      <point x="609" y="434"/>
      <point x="506" y="529"/>
      <point x="357" y="529" type="curve" smooth="yes"/>
      <point x="170" y="529"/>
      <point x="17" y="391"/>
      <point x="17" y="222" type="curve" smooth="yes"/>
      <point x="17" y="83"/>
      <point x="120" y="-12"/>
    </contour>
    <contour>
      <point x="278" y="148" type="curve" smooth="yes"/>
      <point x="231" y="148"/>
      <point x="199" y="179"/>
      <point x="199" y="225" type="curve" smooth="yes"/>
      <point x="199" y="304"/>
      <point x="266" y="369"/>
      <point x="349" y="369" type="curve" smooth="yes"/>
      <point x="395" y="369"/>
      <point x="427" y="338"/>
      <point x="427" y="293" type="curve" smooth="yes"/>
      <point x="427" y="213"/>
      <point x="360" y="148"/>
    </contour>
  </outline>
</glyph>
<glyph name="r" format="2">
  <advance width="431"/>
  <unicode hex="0072"/>
  <anchor x="175" y="0" name="bottom"/>
  <anchor x="280" y="517" name="top"/>
  <outline>
    <contour>
      <point x="195" y="0" type="line"/>
      <point x="303" y="517" type="line"/>
      <point x="110" y="517" type="line"/>
      <point x="2" y="0" type="line"/>
    </contour>
    <contour>
      <point x="239" y="211" type="line"/>
      <point x="259" y="305"/>
      <point x="338" y="369"/>
      <point x="440" y="369" type="curve"/>
      <point x="461" y="529" type="line"/>
      <point x="347" y="529"/>
      <point x="252" y="433"/>
      <point x="222" y="287" type="curve"/>
    </contour>
  </outline>
</glyph>
<glyph name="s" format="2">
  <advance width="506"/>
  <unicode hex="0073"/>
  <anchor x="202" y="0" name="bottom"/>
  <anchor x="310" y="517" name="top"/>
  <outline>
    <contour>
      <point x="216" y="-12" type="curve" smooth="yes"/>
      <point x="356" y="-12"/>
      <point x="466" y="61"/>
      <point x="466" y="181" type="curve" smooth="yes"/>
      <point x="466" y="288"/>
      <point x="377" y="309"/>
      <point x="287" y="330" type="curve" smooth="yes"/>
      <point x="235" y="342"/>
      <point x="228" y="347"/>
      <point x="228" y="356" type="curve" smooth="yes"/>
      <point x="228" y="375"/>
      <point x="259" y="398"/>
      <point x="298" y="398" type="curve" smooth="yes"/>
      <point x="336" y="398"/>
      <point x="391" y="375"/>
      <point x="428" y="347" type="curve"/>
      <point x="508" y="457" type="line"/>
      <point x="454" y="496"/>
      <point x="383" y="529"/>
      <point x="298" y="529" type="curve" smooth="yes"/>
      <point x="165" y="529"/>
      <point x="56" y="449"/>
      <point x="56" y="332" type="curve" smooth="yes"/>
      <point x="56" y="230"/>
      <point x="138" y="211"/>
      <point x="234" y="189" type="curve" smooth="yes"/>
      <point x="291" y="176"/>
      <point x="294" y="169"/>
      <point x="294" y="162" type="curve" smooth="yes"/>
      <point x="294" y="140"/>
      <point x="268" y="122"/>
      <point x="224" y="122" type="curve" smooth="yes"/>
      <point x="176" y="122"/>
      <point x="107" y="144"/>
      <point x="65" y="179" type="curve"/>
      <point x="-22" y="71" type="line"/>
      <point x="33" y="22"/>
      <point x="120" y="-12"/>
    </contour>
  </outline>
</glyph>
<glyph name="v" format="2">
  <advance width="637"/>
  <unicode hex="0076"/>
  <outline>
    <contour>
      <point x="356" y="0" type="line"/>
      <point x="686" y="517" type="line"/>
      <point x="484" y="517" type="line"/>
      <point x="307" y="221" type="line"/>
      <point x="253" y="517" type="line"/>
      <point x="59" y="517" type="line"/>
      <point x="178" y="0" type="line"/>
    </contour>
  </outline>
</glyph>
<glyph name="bar" format="2">
  <advance width="321"/>
  <unicode hex="007C"/>
  <outline>
    <contour>
      <point x="156" y="-74" type="line"/>
      <point x="326" y="743" type="line"/>
      <point x="197" y="743" type="line"/>
      <point x="27" y="-74" type="line"/>
    </contour>
  </outline>
</glyph>
<glyph name="brokenbar" format="2">
  <advance width="315"/>
  <unicode hex="00A6"/>
  <outline>
    <contour>
      <point x="272" y="392" type="line"/>
      <point x="342" y="742" type="line"/>
      <point x="167" y="742" type="line"/>
      <point x="97" y="392" type="line"/>
    </contour>
    <contour>
      <point x="155" y="-194" type="line"/>
      <point x="225" y="156" type="line"/>
      <point x="50" y="156" type="line"/>
      <point x="-20" y="-194" type="line"/>
    </contour>
  </outline>
</glyph>
<glyph name="section" format="2">
  <advance width="506"/>
  <unicode hex="00A7"/>
  <anchor x="266" y="-0" name="bottom"/>
  <anchor x="374" y="517" name="top"/>
  <outline>
    <contour>
      <point x="399" y="186" type="line"/>
      <point x="460" y="210"/>
      <point x="501" y="274"/>
      <point x="501" y="346" type="curve" smooth="yes"/>
      <point x="501" y="453"/>
      <point x="412" y="474"/>
      <point x="379" y="482" type="curve" smooth="yes"/>
      <point x="270" y="507"/>
      <point x="263" y="512"/>
      <point x="263" y="521" type="curve" smooth="yes"/>
      <point x="263" y="540"/>
      <point x="294" y="563"/>
      <point x="333" y="563" type="curve" smooth="yes"/>
      <point x="371" y="563"/>
      <point x="423" y="543"/>
      <point x="463" y="512" type="curve"/>
      <point x="543" y="622" type="line"/>
      <point x="502" y="665"/>
      <point x="418" y="694"/>
      <point x="336" y="694" type="curve" smooth="yes"/>
      <point x="200" y="694"/>
      <point x="91" y="614"/>
      <point x="91" y="497" type="curve" smooth="yes"/>
      <point x="91" y="435"/>
      <point x="173" y="396"/>
      <point x="271" y="374" type="curve" smooth="yes"/>
      <point x="326" y="361"/>
      <point x="329" y="354"/>
      <point x="329" y="342" type="curve" smooth="yes"/>
      <point x="329" y="319"/>
      <point x="318" y="300"/>
      <point x="301" y="294" type="curve"/>
    </contour>
    <contour>
      <point x="216" y="-12" type="curve" smooth="yes"/>
      <point x="356" y="-12"/>
      <point x="466" y="61"/>
      <point x="466" y="181" type="curve" smooth="yes"/>
      <point x="466" y="258"/>
      <point x="377" y="289"/>
      <point x="277" y="312" type="curve" smooth="yes"/>
      <point x="235" y="322"/>
      <point x="228" y="327"/>
      <point x="228" y="342" type="curve" smooth="yes"/>
      <point x="228" y="373"/>
      <point x="256" y="395"/>
      <point x="298" y="398" type="curve"/>
      <point x="162" y="497" type="line"/>
      <point x="98" y="471"/>
      <point x="56" y="405"/>
      <point x="56" y="332" type="curve" smooth="yes"/>
      <point x="56" y="230"/>
      <point x="138" y="211"/>
      <point x="163" y="205" type="curve" smooth="yes"/>
      <point x="291" y="176"/>
      <point x="294" y="169"/>
      <point x="294" y="162" type="curve" smooth="yes"/>
      <point x="294" y="140"/>
      <point x="268" y="122"/>
      <point x="224" y="122" type="curve" smooth="yes"/>
      <point x="176" y="122"/>
      <point x="112" y="145"/>
      <point x="65" y="179" type="curve"/>
      <point x="-22" y="71" type="line"/>
      <point x="25" y="21"/>
      <point x="120" y="-12"/>
    </contour>
  </outline>
  <guideline angle="90" x="-625" y="0"/>
</glyph>
<glyph name="dieresis" format="2">
  <advance width="440"/>
  <unicode hex="00A8"/>
  <anchor x="274" y="517" name="_top"/>
  <anchor x="313" y="704" name="top"/>
  <outline>
    <contour>
      <point x="187" y="575" type="curve" smooth="yes"/>
      <point x="233" y="575"/>
      <point x="277" y="614"/>
      <point x="277" y="666" type="curve" smooth="yes"/>
      <point x="277" y="711"/>
      <point x="244" y="748"/>
      <point x="198" y="748" type="curve" smooth="yes"/>
      <point x="150" y="748"/>
      <point x="106" y="710"/>
      <point x="106" y="656" type="curve" smooth="yes"/>
      <point x="106" y="611"/>
      <point x="137" y="575"/>
    </contour>
    <contour>
      <point x="412" y="575" type="curve" smooth="yes"/>
      <point x="458" y="575"/>
      <point x="502" y="614"/>
      <point x="502" y="667" type="curve" smooth="yes"/>
      <point x="502" y="711"/>
      <point x="470" y="748"/>
      <point x="423" y="748" type="curve" smooth="yes"/>
      <point x="376" y="748"/>
      <point x="331" y="710"/>
      <point x="331" y="657" type="curve" smooth="yes"/>
      <point x="331" y="611"/>
      <point x="363" y="575"/>
    </contour>
  </outline>
</glyph>
<glyph name="ordfeminine" format="2">
  <advance width="343"/>
  <unicode hex="00AA"/>
  <anchor x="327" y="377" name="bottom"/>
  <anchor x="236" y="687" name="top"/>
  <outline>
    <contour>
      <point x="327" y="377" type="line"/>
      <point x="363" y="552"/>
      <point x="368" y="567"/>
      <point x="368" y="585" type="curve" smooth="yes"/>
      <point x="368" y="652"/>
      <point x="314" y="694"/>
      <point x="242" y="694" type="curve" smooth="yes"/>
      <point x="194" y="694"/>
      <point x="145" y="681"/>
      <point x="98" y="660" type="curve"/>
      <point x="126" y="583" type="line"/>
      <point x="150" y="594"/>
      <point x="176" y="603"/>
      <point x="207" y="603" type="curve" smooth="yes"/>
      <point x="239" y="603"/>
      <point x="256" y="594"/>
      <point x="256" y="574" type="curve" smooth="yes"/>
      <point x="256" y="570"/>
      <point x="261" y="594"/>
      <point x="216" y="377" type="curve"/>
    </contour>
    <contour>
      <point x="142" y="370" type="curve" smooth="yes"/>
      <point x="186" y="370"/>
      <point x="236" y="393"/>
      <point x="258" y="441" type="curve"/>
      <point x="236" y="480" type="line"/>
      <point x="231" y="462"/>
      <point x="203" y="444"/>
      <point x="171" y="444" type="curve" smooth="yes"/>
      <point x="156" y="444"/>
      <point x="146" y="450"/>
      <point x="146" y="459" type="curve" smooth="yes"/>
      <point x="146" y="480"/>
      <point x="173" y="502"/>
      <point x="200" y="502" type="curve" smooth="yes"/>
      <point x="215" y="502"/>
      <point x="231" y="500"/>
      <point x="244" y="492" type="curve"/>
      <point x="279" y="539" type="line"/>
      <point x="251" y="559"/>
      <point x="218" y="572"/>
      <point x="184" y="572" type="curve" smooth="yes"/>
      <point x="108" y="572"/>
      <point x="36" y="528"/>
      <point x="36" y="458" type="curve" smooth="yes"/>
      <point x="36" y="406"/>
      <point x="80" y="370"/>
    </contour>
  </outline>
</glyph>
<glyph name="logicalnot" format="2">
  <advance width="646"/>
  <unicode hex="00AC"/>
  <outline>
    <contour>
      <point x="111" y="424" type="line"/>
      <point x="80" y="277" type="line"/>
      <point x="418" y="277" type="line"/>
      <point x="381" y="105" type="line"/>
      <point x="537" y="105" type="line"/>
      <point x="605" y="424" type="line"/>
    </contour>
  </outline>
</glyph>
<glyph name="plusminus" format="2">
  <advance width="638"/>
  <unicode hex="00B1"/>
  <outline>
    <contour>
      <point x="497" y="0" type="line"/>
      <point x="527" y="147" type="line"/>
      <point x="33" y="147" type="line"/>
      <point x="4" y="0" type="line"/>
    </contour>
    <contour>
      <point x="372" y="222" type="line"/>
      <point x="463" y="677" type="line"/>
      <point x="308" y="677" type="line"/>
      <point x="217" y="222" type="line"/>
    </contour>
    <contour>
      <point x="573" y="380" type="line"/>
      <point x="601" y="520" type="line"/>
      <point x="108" y="520" type="line"/>
      <point x="79" y="380" type="line"/>
    </contour>
  </outline>
</glyph>
<glyph name="two.superior" format="2">
  <advance width="396"/>
  <unicode hex="00B2"/>
  <outline>
    <contour>
      <point x="330" y="275" type="line"/>
      <point x="352" y="379" type="line"/>
      <point x="201" y="379" type="line"/>
      <point x="264" y="411" type="line"/>
      <point x="337" y="453"/>
      <point x="386" y="499"/>
      <point x="386" y="576" type="curve" smooth="yes"/>
      <point x="386" y="645"/>
      <point x="332" y="694"/>
      <point x="242" y="694" type="curve" smooth="yes"/>
      <point x="178" y="694"/>
      <point x="118" y="670"/>
      <point x="62" y="616" type="curve"/>
      <point x="124" y="537" type="line"/>
      <point x="161" y="569"/>
      <point x="193" y="589"/>
      <point x="233" y="589" type="curve" smooth="yes"/>
      <point x="253" y="589"/>
      <point x="266" y="581"/>
      <point x="266" y="566" type="curve" smooth="yes"/>
      <point x="266" y="534"/>
      <point x="231" y="506"/>
      <point x="193" y="482" type="curve" smooth="yes"/>
      <point x="19" y="369" type="line"/>
      <point x="1" y="275" type="line"/>
    </contour>
  </outline>
</glyph>
<glyph name="three.superior" format="2">
  <advance width="388"/>
  <unicode hex="00B3"/>
  <outline>
    <contour>
      <point x="165" y="267" type="curve" smooth="yes"/>
      <point x="263" y="267"/>
      <point x="353" y="319"/>
      <point x="353" y="405" type="curve" smooth="yes"/>
      <point x="353" y="448"/>
      <point x="323" y="477"/>
      <point x="287" y="485" type="curve"/>
      <point x="344" y="501"/>
      <point x="383" y="538"/>
      <point x="383" y="594" type="curve" smooth="yes"/>
      <point x="383" y="652"/>
      <point x="332" y="694"/>
      <point x="238" y="694" type="curve" smooth="yes"/>
      <point x="163" y="694"/>
      <point x="107" y="666"/>
      <point x="62" y="625" type="curve"/>
      <point x="116" y="547" type="line"/>
      <point x="147" y="571"/>
      <point x="181" y="591"/>
      <point x="219" y="591" type="curve" smooth="yes"/>
      <point x="249" y="591"/>
      <point x="265" y="584"/>
      <point x="262" y="568" type="curve" smooth="yes"/>
      <point x="257" y="545"/>
      <point x="233" y="530"/>
      <point x="194" y="530" type="curve" smooth="yes"/>
      <point x="149" y="530" type="line"/>
      <point x="128" y="433" type="line"/>
      <point x="182" y="433" type="line" smooth="yes"/>
      <point x="226" y="434"/>
      <point x="238" y="429"/>
      <point x="238" y="417" type="curve" smooth="yes"/>
      <point x="238" y="390"/>
      <point x="203" y="371"/>
      <point x="165" y="371" type="curve" smooth="yes"/>
      <point x="134" y="371"/>
      <point x="98" y="381"/>
      <point x="74" y="410" type="curve"/>
      <point x="-2" y="339" type="line"/>
      <point x="29" y="298"/>
      <point x="83" y="267"/>
    </contour>
  </outline>
</glyph>
<glyph name="micro" format="2">
  <advance width="623"/>
  <unicode hex="00B5"/>
  <outline>
    <component base="u"/>
    <contour>
      <point x="136" y="-172" type="line"/>
      <point x="222" y="237" type="line"/>
      <point x="39" y="237" type="line"/>
      <point x="-47" y="-172" type="line"/>
    </contour>
  </outline>
</glyph>
<glyph name="paragraph" format="2">
  <advance width="782"/>
  <unicode hex="00B6"/>
  <outline>
    <contour>
      <point x="363" y="-50" type="line"/>
      <point x="489" y="556" type="line"/>
      <point x="612" y="556" type="line"/>
      <point x="486" y="-50" type="line"/>
      <point x="623" y="-50" type="line"/>
      <point x="776" y="684" type="line"/>
      <point x="360" y="684" type="line"/>
      <point x="208" y="684"/>
      <point x="89" y="588"/>
      <point x="89" y="444" type="curve" smooth="yes"/>
      <point x="89" y="340"/>
      <point x="167" y="272"/>
      <point x="299" y="272" type="curve"/>
      <point x="226" y="-50" type="line"/>
    </contour>
  </outline>
</glyph>
<glyph name="periodcentered" format="2">
  <advance width="294"/>
  <unicode hex="00B7"/>
  <outline>
    <contour>
      <point x="143" y="177" type="curve" smooth="yes"/>
      <point x="203" y="177"/>
      <point x="253" y="229"/>
      <point x="253" y="288" type="curve" smooth="yes"/>
      <point x="253" y="340"/>
      <point x="214" y="381"/>
      <point x="160" y="381" type="curve" smooth="yes"/>
      <point x="100" y="381"/>
      <point x="50" y="330"/>
      <point x="50" y="269" type="curve" smooth="yes"/>
      <point x="50" y="217"/>
      <point x="88" y="177"/>
    </contour>
  </outline>
</glyph>
<glyph name="ordmasculine" format="2">
  <advance width="376"/>
  <unicode hex="00BA"/>
  <anchor x="258" y="687" name="top"/>
  <outline>
    <contour>
      <point x="201" y="370" type="curve" smooth="yes"/>
      <point x="314" y="370"/>
      <point x="405" y="453"/>
      <point x="405" y="555" type="curve" smooth="yes"/>
      <point x="405" y="637"/>
      <point x="344" y="694"/>
      <point x="254" y="694" type="curve" smooth="yes"/>
      <point x="142" y="694"/>
      <point x="50" y="612"/>
      <point x="50" y="510" type="curve" smooth="yes"/>
      <point x="50" y="427"/>
      <point x="112" y="370"/>
    </contour>
    <contour>
      <point x="207" y="466" type="curve" smooth="yes"/>
      <point x="179" y="466"/>
      <point x="159" y="484"/>
      <point x="159" y="512" type="curve" smooth="yes"/>
      <point x="159" y="559"/>
      <point x="200" y="598"/>
      <point x="249" y="598" type="curve" smooth="yes"/>
      <point x="277" y="598"/>
      <point x="296" y="580"/>
      <point x="296" y="553" type="curve" smooth="yes"/>
      <point x="296" y="505"/>
      <point x="256" y="466"/>
    </contour>
  </outline>
</glyph>
<glyph name="Eth" format="2">
  <advance width="794"/>
  <unicode hex="00D0"/>
  <outline>
    <contour>
      <point x="418" y="258" type="line"/>
      <point x="455" y="431" type="line"/>
      <point x="56" y="431" type="line"/>
      <point x="20" y="258" type="line"/>
    </contour>
    <contour>
      <point x="314" y="0" type="line" smooth="yes"/>
      <point x="575" y="0"/>
      <point x="794" y="183"/>
      <point x="794" y="400" type="curve" smooth="yes"/>
      <point x="794" y="568"/>
      <point x="649" y="687"/>
      <point x="444" y="687" type="curve" smooth="yes"/>
      <point x="194" y="687" type="line"/>
      <point x="51" y="0" type="line"/>
    </contour>
    <contour>
      <point x="352" y="511" type="line"/>
      <point x="452" y="511" type="line" smooth="yes"/>
      <point x="536" y="511"/>
      <point x="596" y="462"/>
      <point x="596" y="393" type="curve" smooth="yes"/>
      <point x="596" y="275"/>
      <point x="493" y="176"/>
      <point x="370" y="176" type="curve" smooth="yes"/>
      <point x="282" y="176" type="line"/>
    </contour>
  </outline>
</glyph>
<glyph name="multiply" format="2">
  <advance width="558"/>
  <unicode hex="00D7"/>
  <outline>
    <contour>
      <point x="550" y="457" type="line"/>
      <point x="461" y="563" type="line"/>
      <point x="39" y="210" type="line"/>
      <point x="128" y="104" type="line"/>
    </contour>
    <contour>
      <point x="503" y="214" type="line"/>
      <point x="219" y="567" type="line"/>
      <point x="87" y="454" type="line"/>
      <point x="371" y="101" type="line"/>
    </contour>
  </outline>
</glyph>
<glyph name="thorn" format="2">
  <advance width="691"/>
  <unicode hex="00FE"/>
  <outline>
    <contour>
      <point x="175" y="-172" type="line"/>
      <point x="356" y="699" type="line"/>
      <point x="163" y="699" type="line"/>
      <point x="-18" y="-172" type="line"/>
    </contour>
    <contour>
      <point x="387" y="-12" type="curve" smooth="yes"/>
      <point x="553" y="-12"/>
      <point x="673" y="147"/>
      <point x="673" y="318" type="curve" smooth="yes"/>
      <point x="673" y="444"/>
      <point x="597" y="529"/>
      <point x="475" y="529" type="curve" smooth="yes"/>
      <point x="312" y="529"/>
      <point x="193" y="369"/>
      <point x="193" y="199" type="curve" smooth="yes"/>
      <point x="193" y="73"/>
      <point x="267" y="-12"/>
    </contour>
    <contour>
      <point x="335" y="148" type="curve" smooth="yes"/>
      <point x="288" y="148"/>
      <point x="260" y="175"/>
      <point x="260" y="219" type="curve" smooth="yes"/>
      <point x="260" y="292"/>
      <point x="326" y="369"/>
      <point x="406" y="369" type="curve" smooth="yes"/>
      <point x="458" y="369"/>
      <point x="489" y="341"/>
      <point x="489" y="296" type="curve" smooth="yes"/>
      <point x="489" y="221"/>
      <point x="418" y="148"/>
    </contour>
  </outline>
</glyph>
<glyph name="dotlessi" format="2">
  <advance width="305"/>
  <unicode hex="0131"/>
  <anchor x="195" y="0" name="bottom"/>
  <anchor x="207" y="517" name="top"/>
  <outline>
    <contour>
      <point x="195" y="0" type="line"/>
      <point x="303" y="517" type="line"/>
      <point x="110" y="517" type="line"/>
      <point x="2" y="0" type="line"/>
    </contour>
  </outline>
  <guideline angle="0" x="0" y="-0"/>
</glyph>
<glyph name="kgreenlandic" format="2">
  <advance width="616"/>
  <unicode hex="0138"/>
  <anchor x="271" y="0" name="bottom"/>
  <outline>
    <contour>
      <point x="203" y="0" type="line"/>
      <point x="310" y="517" type="line"/>
      <point x="117" y="517" type="line"/>
      <point x="10" y="0" type="line"/>
    </contour>
    <contour>
      <point x="217" y="110" type="line"/>
      <point x="638" y="517" type="line"/>
      <point x="418" y="517" type="line"/>
      <point x="264" y="332" type="line"/>
    </contour>
    <contour>
      <point x="277" y="185" type="line"/>
      <point x="339" y="0" type="line"/>
      <point x="550" y="0" type="line"/>
      <point x="420" y="314" type="line"/>
    </contour>
  </outline>
</glyph>
<glyph name="lslash" format="2">
  <advance width="388"/>
  <unicode hex="0142"/>
  <outline>
    <contour>
      <point x="386" y="350" type="line"/>
      <point x="419" y="517" type="line"/>
      <point x="35" y="345" type="line"/>
      <point x="3" y="178" type="line"/>
    </contour>
    <contour>
      <point x="240" y="0" type="line"/>
      <point x="385" y="699" type="line"/>
      <point x="192" y="699" type="line"/>
      <point x="47" y="0" type="line"/>
    </contour>
  </outline>
</glyph>
<glyph name="eng" format="2">
  <advance width="626"/>
  <unicode hex="014B"/>
  <anchor x="267" y="0" name="bottom"/>
  <outline>
    <component base="n"/>
    <contour>
      <point x="319" y="-178" type="curve" smooth="yes"/>
      <point x="421" y="-178"/>
      <point x="505" y="-110"/>
      <point x="527" y="-2" type="curve" smooth="yes"/>
      <point x="566" y="185" type="line"/>
      <point x="391" y="223" type="line"/>
      <point x="352" y="38" type="line" smooth="yes"/>
      <point x="345" y="7"/>
      <point x="305" y="-23"/>
      <point x="273" y="-23" type="curve" smooth="yes"/>
      <point x="263" y="-23"/>
      <point x="245" y="-23"/>
      <point x="234" y="-18" type="curve"/>
      <point x="199" y="-151" type="line"/>
      <point x="225" y="-165"/>
      <point x="272" y="-178"/>
    </contour>
  </outline>
</glyph>
<glyph name="oe" format="2">
  <advance width="951"/>
  <unicode hex="0153"/>
  <anchor x="670" y="-12" name="bottom"/>
  <anchor x="358" y="517" name="top"/>
  <outline>
    <contour>
      <point x="269" y="-12" type="curve" smooth="yes"/>
      <point x="456" y="-12"/>
      <point x="609" y="127"/>
      <point x="609" y="296" type="curve" smooth="yes"/>
      <point x="609" y="434"/>
      <point x="506" y="529"/>
      <point x="357" y="529" type="curve" smooth="yes"/>
      <point x="170" y="529"/>
      <point x="17" y="391"/>
      <point x="17" y="222" type="curve" smooth="yes"/>
      <point x="17" y="83"/>
      <point x="120" y="-12"/>
    </contour>
    <contour>
      <point x="278" y="148" type="curve" smooth="yes"/>
      <point x="231" y="148"/>
      <point x="199" y="179"/>
      <point x="199" y="225" type="curve" smooth="yes"/>
      <point x="199" y="304"/>
      <point x="266" y="369"/>
      <point x="349" y="369" type="curve" smooth="yes"/>
      <point x="395" y="369"/>
      <point x="427" y="338"/>
      <point x="427" y="293" type="curve" smooth="yes"/>
      <point x="427" y="213"/>
      <point x="360" y="148"/>
    </contour>
    <contour>
      <point x="670" y="-12" type="curve" smooth="yes"/>
      <point x="743" y="-12"/>
      <point x="835" y="16"/>
      <point x="891" y="63" type="curve"/>
      <point x="798" y="180" type="line"/>
      <point x="760" y="153"/>
      <point x="713" y="132"/>
      <point x="667" y="132" type="curve" smooth="yes"/>
      <point x="620" y="132"/>
      <point x="592" y="163"/>
      <point x="592" y="213" type="curve" smooth="yes"/>
      <point x="592" y="295"/>
      <point x="660" y="385"/>
      <point x="745" y="385" type="curve" smooth="yes"/>
      <point x="775" y="385"/>
      <point x="797" y="374"/>
      <point x="797" y="359" type="curve"/>
      <point x="796" y="331"/>
      <point x="766" y="314"/>
      <point x="717" y="314" type="curve"/>
      <point x="499" y="314" type="line"/>
      <point x="478" y="213" type="line"/>
      <point x="696" y="213" type="line"/>
      <point x="857" y="207"/>
      <point x="952" y="272"/>
      <point x="952" y="388" type="curve" smooth="yes"/>
      <point x="952" y="471"/>
      <point x="868" y="529"/>
      <point x="750" y="529" type="curve" smooth="yes"/>
      <point x="570" y="529"/>
      <point x="430" y="387"/>
      <point x="430" y="210" type="curve" smooth="yes"/>
      <point x="430" y="78"/>
      <point x="522" y="-12"/>
    </contour>
  </outline>
</glyph>
<glyph name="Schwa" format="2">
  <advance width="742"/>
  <unicode hex="018F"/>
  <anchor x="432" y="703" name="bottom"/>
  <anchor x="310" y="0" name="top"/>
  <outline>
    <contour>
      <point x="432" y="703" type="curve" smooth="yes"/>
      <point x="336" y="703"/>
      <point x="210" y="665"/>
      <point x="136" y="602" type="curve"/>
      <point x="241" y="469" type="line"/>
      <point x="292" y="508"/>
      <point x="363" y="539"/>
      <point x="431" y="539" type="curve" smooth="yes"/>
      <point x="509" y="539"/>
      <point x="555" y="486"/>
      <point x="555" y="405" type="curve" smooth="yes"/>
      <point x="555" y="281"/>
      <point x="454" y="148"/>
      <point x="324" y="148" type="curve" smooth="yes"/>
      <point x="271" y="148"/>
      <point x="231" y="170"/>
      <point x="231" y="202" type="curve"/>
      <point x="233" y="248"/>
      <point x="282" y="276"/>
      <point x="365" y="276" type="curve" smooth="yes"/>
      <point x="650" y="276" type="line"/>
      <point x="676" y="398" type="line"/>
      <point x="390" y="398" type="line"/>
      <point x="179" y="404"/>
      <point x="53" y="318"/>
      <point x="53" y="172" type="curve" smooth="yes"/>
      <point x="53" y="60"/>
      <point x="167" y="-16"/>
      <point x="316" y="-16" type="curve" smooth="yes"/>
      <point x="549" y="-16"/>
      <point x="740" y="177"/>
      <point x="740" y="410" type="curve" smooth="yes"/>
      <point x="740" y="584"/>
      <point x="620" y="703"/>
    </contour>
  </outline>
</glyph>
<glyph name="Ohorn" format="2">
  <advance width="815"/>
  <unicode hex="01A0"/>
  <outline>
    <contour>
      <point x="375" y="164" type="curve" smooth="yes"/>
      <point x="299" y="164"/>
      <point x="244" y="219"/>
      <point x="244" y="295" type="curve" smooth="yes"/>
      <point x="244" y="411"/>
      <point x="360" y="523"/>
      <point x="475" y="523" type="curve" smooth="yes"/>
      <point x="551" y="523"/>
      <point x="606" y="468"/>
      <point x="606" y="392" type="curve" smooth="yes"/>
      <point x="606" y="276"/>
      <point x="490" y="164"/>
    </contour>
    <contour>
      <point x="363" y="-12" type="curve" smooth="yes"/>
      <point x="580" y="-12"/>
      <point x="803" y="174"/>
      <point x="803" y="399" type="curve" smooth="yes"/>
      <point x="803" y="470"/>
      <point x="781" y="535"/>
      <point x="735" y="590" type="curve"/>
      <point x="836" y="629"/>
      <point x="894" y="712"/>
      <point x="923" y="814" type="curve"/>
      <point x="759" y="814" type="line"/>
      <point x="744" y="745"/>
      <point x="691" y="687"/>
      <point x="617" y="687" type="curve" smooth="yes"/>
      <point x="579" y="687" type="line" smooth="yes"/>
      <point x="569" y="687"/>
      <point x="559" y="693"/>
      <point x="549" y="694" type="curve" smooth="yes"/>
      <point x="528" y="697"/>
      <point x="507" y="699"/>
      <point x="486" y="699" type="curve" smooth="yes"/>
      <point x="269" y="699"/>
      <point x="47" y="514"/>
      <point x="47" y="289" type="curve" smooth="yes"/>
      <point x="47" y="109"/>
      <point x="188" y="-12"/>
    </contour>
  </outline>
</glyph>
<glyph name="ohorn" format="2">
  <advance width="677"/>
  <unicode hex="01A1"/>
  <outline>
    <contour>
      <point x="284" y="148" type="curve" smooth="yes"/>
      <point x="239" y="148"/>
      <point x="202" y="178"/>
      <point x="202" y="225" type="curve" smooth="yes"/>
      <point x="202" y="300"/>
      <point x="283" y="369"/>
      <point x="355" y="369" type="curve" smooth="yes"/>
      <point x="400" y="369"/>
      <point x="435" y="339"/>
      <point x="435" y="293" type="curve" smooth="yes"/>
      <point x="435" y="219"/>
      <point x="357" y="148"/>
    </contour>
    <contour>
      <point x="275" y="-12" type="curve" smooth="yes"/>
      <point x="442" y="-12"/>
      <point x="612" y="122"/>
      <point x="612" y="296" type="curve" smooth="yes"/>
      <point x="612" y="341"/>
      <point x="599" y="385"/>
      <point x="574" y="423" type="curve"/>
      <point x="669" y="460"/>
      <point x="727" y="550"/>
      <point x="754" y="644" type="curve"/>
      <point x="590" y="644" type="line"/>
      <point x="576" y="577"/>
      <point x="526" y="521"/>
      <point x="457" y="517" type="curve"/>
      <point x="448" y="517" type="line"/>
      <point x="421" y="517"/>
      <point x="392" y="529"/>
      <point x="363" y="529" type="curve" smooth="yes"/>
      <point x="197" y="529"/>
      <point x="25" y="397"/>
      <point x="25" y="222" type="curve" smooth="yes"/>
      <point x="25" y="80"/>
      <point x="138" y="-12"/>
    </contour>
  </outline>
</glyph>
<glyph name="Uhorn" format="2">
  <advance width="813"/>
  <unicode hex="01AF"/>
  <outline>
    <contour>
      <point x="336" y="-12" type="curve" smooth="yes"/>
      <point x="527" y="-12"/>
      <point x="675" y="111"/>
      <point x="715" y="297" type="curve" smooth="yes"/>
      <point x="776" y="590" type="line"/>
      <point x="877" y="630"/>
      <point x="935" y="712"/>
      <point x="964" y="814" type="curve"/>
      <point x="800" y="814" type="line"/>
      <point x="785" y="745"/>
      <point x="732" y="687"/>
      <point x="658" y="687" type="curve" smooth="yes"/>
      <point x="602" y="687" type="line"/>
      <point x="527" y="323" type="line" smooth="yes"/>
      <point x="510" y="238"/>
      <point x="438" y="164"/>
      <point x="348" y="164" type="curve" smooth="yes"/>
      <point x="286" y="164"/>
      <point x="253" y="205"/>
      <point x="253" y="265" type="curve" smooth="yes"/>
      <point x="253" y="279"/>
      <point x="254" y="293"/>
      <point x="257" y="307" type="curve" smooth="yes"/>
      <point x="336" y="687" type="line"/>
      <point x="142" y="687" type="line"/>
      <point x="64" y="313" type="line" smooth="yes"/>
      <point x="59" y="289"/>
      <point x="56" y="265"/>
      <point x="56" y="240" type="curve" smooth="yes"/>
      <point x="56" y="76"/>
      <point x="182" y="-12"/>
    </contour>
  </outline>
</glyph>
<glyph name="uhorn" format="2">
  <advance width="683"/>
  <unicode hex="01B0"/>
  <outline>
    <contour>
      <point x="31" y="148" type="curve" smooth="yes"/>
      <point x="31" y="50"/>
      <point x="98" y="-12"/>
      <point x="195" y="-12" type="curve" smooth="yes"/>
      <point x="249" y="-12"/>
      <point x="298" y="5"/>
      <point x="338" y="41" type="curve"/>
      <point x="329" y="0" type="line"/>
      <point x="522" y="0" type="line"/>
      <point x="610" y="420" type="line"/>
      <point x="707" y="449"/>
      <point x="772" y="551"/>
      <point x="799" y="644" type="curve"/>
      <point x="635" y="644" type="line"/>
      <point x="620" y="575"/>
      <point x="567" y="517"/>
      <point x="493" y="517" type="curve" smooth="yes"/>
      <point x="437" y="517" type="line"/>
      <point x="378" y="235" type="line" smooth="yes"/>
      <point x="368" y="187"/>
      <point x="325" y="148"/>
      <point x="275" y="148" type="curve" smooth="yes"/>
      <point x="241" y="148"/>
      <point x="223" y="166"/>
      <point x="223" y="200" type="curve" smooth="yes"/>
      <point x="223" y="235"/>
      <point x="235" y="268"/>
      <point x="242" y="302" type="curve"/>
      <point x="287" y="517" type="line"/>
      <point x="103" y="517" type="line"/>
      <point x="49" y="260" type="line"/>
      <point x="40" y="222"/>
      <point x="31" y="186"/>
    </contour>
  </outline>
</glyph>
<glyph name="schwa" format="2">
  <advance width="540"/>
  <unicode hex="0259"/>
  <anchor x="281" y="529" name="bottom"/>
  <anchor x="196" y="0" name="top"/>
  <outline>
    <contour>
      <point x="281" y="529" type="curve" smooth="yes"/>
      <point x="208" y="529"/>
      <point x="116" y="501"/>
      <point x="60" y="454" type="curve"/>
      <point x="153" y="337" type="line"/>
      <point x="191" y="364"/>
      <point x="238" y="385"/>
      <point x="284" y="385" type="curve" smooth="yes"/>
      <point x="331" y="385"/>
      <point x="359" y="354"/>
      <point x="359" y="304" type="curve" smooth="yes"/>
      <point x="359" y="222"/>
      <point x="291" y="132"/>
      <point x="206" y="132" type="curve" smooth="yes"/>
      <point x="176" y="132"/>
      <point x="154" y="143"/>
      <point x="154" y="158" type="curve"/>
      <point x="155" y="186"/>
      <point x="185" y="203"/>
      <point x="234" y="203" type="curve" smooth="yes"/>
      <point x="452" y="203" type="line"/>
      <point x="473" y="304" type="line"/>
      <point x="255" y="304" type="line"/>
      <point x="94" y="310"/>
      <point x="-1" y="245"/>
      <point x="-1" y="129" type="curve" smooth="yes"/>
      <point x="-1" y="46"/>
      <point x="83" y="-12"/>
      <point x="201" y="-12" type="curve" smooth="yes"/>
      <point x="381" y="-12"/>
      <point x="521" y="130"/>
      <point x="521" y="307" type="curve" smooth="yes"/>
      <point x="521" y="439"/>
      <point x="429" y="529"/>
    </contour>
  </outline>
</glyph>
<glyph name="caron" format="2">
  <advance width="396"/>
  <unicode hex="02C7"/>
  <anchor x="246" y="517" name="_top"/>
  <anchor x="284" y="704" name="top"/>
  <outline>
    <contour>
      <point x="341" y="574" type="line"/>
      <point x="482" y="728" type="line"/>
      <point x="365" y="728" type="line"/>
      <point x="275" y="661" type="line"/>
      <point x="218" y="728" type="line"/>
      <point x="110" y="728" type="line"/>
      <point x="186" y="574" type="line"/>
    </contour>
  </outline>
</glyph>
<glyph name="breve" format="2">
  <advance width="359"/>
  <unicode hex="02D8"/>
  <anchor x="233" y="517" name="_top"/>
  <anchor x="271" y="704" name="top"/>
  <outline>
    <contour>
      <point x="245" y="575" type="curve" smooth="yes"/>
      <point x="307" y="575"/>
      <point x="374" y="599"/>
      <point x="431" y="646" type="curve"/>
      <point x="372" y="720" type="line"/>
      <point x="340" y="693"/>
      <point x="300" y="677"/>
      <point x="266" y="677" type="curve" smooth="yes"/>
      <point x="232" y="677"/>
      <point x="200" y="693"/>
      <point x="178" y="720" type="curve"/>
      <point x="89" y="646" type="line"/>
      <point x="127" y="599"/>
      <point x="183" y="575"/>
    </contour>
  </outline>
</glyph>
<glyph name="dotaccent" format="2">
  <advance width="215"/>
  <unicode hex="02D9"/>
  <anchor x="162" y="517" name="_top"/>
  <anchor x="54" y="0" name="bottom"/>
  <anchor x="201" y="704" name="top"/>
  <outline>
    <contour>
      <point x="187" y="575" type="curve" smooth="yes"/>
      <point x="233" y="575"/>
      <point x="277" y="614"/>
      <point x="277" y="666" type="curve" smooth="yes"/>
      <point x="277" y="711"/>
      <point x="244" y="748"/>
      <point x="198" y="748" type="curve" smooth="yes"/>
      <point x="150" y="748"/>
      <point x="106" y="710"/>
      <point x="106" y="656" type="curve" smooth="yes"/>
      <point x="106" y="611"/>
      <point x="137" y="575"/>
    </contour>
  </outline>
</glyph>
<glyph name="dotaccentcomb" format="2">
  <advance width="239"/>
  <unicode hex="0307"/>
  <anchor x="174" y="517" name="_top"/>
  <outline>
    <contour>
      <point x="199" y="573" type="curve" smooth="yes"/>
      <point x="254" y="573"/>
      <point x="304" y="623"/>
      <point x="304" y="680" type="curve" smooth="yes"/>
      <point x="304" y="730"/>
      <point x="267" y="771"/>
      <point x="215" y="771" type="curve" smooth="yes"/>
      <point x="160" y="771"/>
      <point x="107" y="724"/>
      <point x="107" y="664" type="curve" smooth="yes"/>
      <point x="107" y="614"/>
      <point x="145" y="573"/>
    </contour>
  </outline>
  <guideline angle="78.2" x="206" y="668"/>
</glyph>
<glyph name="hookabovecomb" format="2">
  <advance width="555"/>
  <unicode hex="0309"/>
  <outline>
    <contour>
      <point x="294.945" y="569" type="line"/>
      <point x="387.945" y="569" type="line"/>
      <point x="389.858" y="578" type="line"/>
      <point x="446.046" y="593"/>
      <point x="507.423" y="623"/>
      <point x="520.601" y="685" type="curve" smooth="yes"/>
      <point x="536.118" y="758"/>
      <point x="464.669" y="770"/>
      <point x="406.669" y="770" type="curve" smooth="yes"/>
      <point x="363.669" y="770"/>
      <point x="318.968" y="762"/>
      <point x="274.992" y="748" type="curve"/>
      <point x="262.012" y="654" type="line"/>
      <point x="291.563" y="666"/>
      <point x="325.901" y="677"/>
      <point x="355.901" y="677" type="curve" smooth="yes"/>
      <point x="366.901" y="677"/>
      <point x="387.688" y="676"/>
      <point x="384.5" y="661" type="curve" smooth="yes"/>
      <point x="379.611" y="638"/>
      <point x="325.147" y="617"/>
      <point x="303.872" y="611" type="curve"/>
    </contour>
  </outline>
</glyph>
<glyph name="dblgravecomb" format="2">
  <advance width="662"/>
  <unicode hex="030F"/>
  <outline>
    <contour>
      <point x="287" y="710" type="line"/>
      <point x="410" y="574" type="line"/>
      <point x="536" y="574" type="line"/>
      <point x="459" y="738" type="line"/>
    </contour>
    <contour>
      <point x="29" y="710" type="line"/>
      <point x="152" y="574" type="line"/>
      <point x="278" y="574" type="line"/>
      <point x="201" y="738" type="line"/>
    </contour>
  </outline>
</glyph>
<glyph name="breveinvertedcomb" format="2">
  <advance width="359"/>
  <unicode hex="0311"/>
  <anchor x="233" y="517" name="_top"/>
  <anchor x="271" y="704" name="top"/>
  <outline>
    <contour>
      <point x="259" y="720" type="curve" smooth="yes"/>
      <point x="197" y="720"/>
      <point x="130" y="696"/>
      <point x="73" y="649" type="curve"/>
      <point x="132" y="575" type="line"/>
      <point x="164" y="602"/>
      <point x="204" y="618"/>
      <point x="238" y="618" type="curve" smooth="yes"/>
      <point x="272" y="618"/>
      <point x="304" y="602"/>
      <point x="326" y="575" type="curve"/>
      <point x="415" y="649" type="line"/>
      <point x="377" y="696"/>
      <point x="321" y="720"/>
    </contour>
  </outline>
</glyph>
<glyph name="horncomb" format="2">
  <advance width="628"/>
  <unicode hex="031B"/>
  <outline>
    <contour>
      <point x="509" y="517" type="curve" smooth="yes"/>
      <point x="439" y="517" type="line"/>
      <point x="413" y="395" type="line"/>
      <point x="482" y="395" type="line" smooth="yes"/>
      <point x="638" y="395"/>
      <point x="780" y="480"/>
      <point x="815" y="644" type="curve"/>
      <point x="651" y="644" type="line"/>
      <point x="636" y="574"/>
      <point x="584" y="517"/>
    </contour>
  </outline>
</glyph>
<glyph name="dotbelowcomb" format="2">
  <advance width="590"/>
  <unicode hex="0323"/>
  <outline>
    <contour>
      <point x="240.672" y="-58" type="curve" smooth="yes"/>
      <point x="192.672" y="-58"/>
      <point x="146.382" y="-97"/>
      <point x="136.179" y="-145" type="curve" smooth="yes"/>
      <point x="126.189" y="-192"/>
      <point x="156.899" y="-231"/>
      <point x="203.899" y="-231" type="curve" smooth="yes"/>
      <point x="251.899" y="-231"/>
      <point x="298.977" y="-193"/>
      <point x="309.179" y="-145" type="curve" smooth="yes"/>
      <point x="319.807" y="-95"/>
      <point x="290.672" y="-58"/>
    </contour>
  </outline>
</glyph>
<glyph name="commaaccentcomb" format="2">
  <advance width="212"/>
  <unicode hex="0326"/>
  <anchor x="37" y="0" name="_bottom"/>
  <anchor x="142" y="517" name="_top"/>
  <outline>
    <contour>
      <point x="-14" y="-306" type="line"/>
      <point x="52" y="-259"/>
      <point x="109" y="-193"/>
      <point x="109" y="-117" type="curve" smooth="yes"/>
      <point x="109" y="-62"/>
      <point x="79" y="-23"/>
      <point x="32" y="-23" type="curve" smooth="yes"/>
      <point x="-14" y="-23"/>
      <point x="-56" y="-65"/>
      <point x="-56" y="-115" type="curve" smooth="yes"/>
      <point x="-56" y="-156"/>
      <point x="-37" y="-188"/>
      <point x="11" y="-188" type="curve"/>
      <point x="-6" y="-212"/>
      <point x="-32" y="-240"/>
      <point x="-62" y="-260" type="curve"/>
    </contour>
  </outline>
  <guideline angle="78.5" x="32" y="-23"/>
</glyph>
<glyph name="bullet" format="2">
  <advance width="387"/>
  <unicode hex="2022"/>
  <outline>
    <contour>
      <point x="184" y="148" type="curve" smooth="yes"/>
      <point x="274" y="148"/>
      <point x="352" y="228"/>
      <point x="352" y="316" type="curve" smooth="yes"/>
      <point x="352" y="390"/>
      <point x="298" y="447"/>
      <point x="221" y="447" type="curve" smooth="yes"/>
      <point x="130" y="447"/>
      <point x="52" y="369"/>
      <point x="52" y="279" type="curve" smooth="yes"/>
      <point x="52" y="205"/>
      <point x="106" y="148"/>
    </contour>
  </outline>
</glyph>
<glyph name="guilsinglleft" format="2">
  <advance width="375"/>
  <unicode hex="2039"/>
  <outline>
    <contour>
      <point x="296" y="79" type="line"/>
      <point x="196" y="256" type="line"/>
      <point x="373" y="432" type="line"/>
      <point x="233" y="462" type="line"/>
      <point x="26" y="256" type="line"/>
      <point x="152" y="48" type="line"/>
    </contour>
  </outline>
</glyph>
<glyph name="zero.superior" format="2">
  <advance width="442"/>
  <unicode hex="2070"/>
  <outline>
    <contour>
      <point x="194" y="268" type="curve" smooth="yes"/>
      <point x="329" y="268"/>
      <point x="430" y="391"/>
      <point x="430" y="528" type="curve" smooth="yes"/>
      <point x="430" y="628"/>
      <point x="368" y="694"/>
      <point x="268" y="694" type="curve" smooth="yes"/>
      <point x="134" y="694"/>
      <point x="33" y="571"/>
      <point x="33" y="434" type="curve" smooth="yes"/>
      <point x="33" y="334"/>
      <point x="95" y="268"/>
    </contour>
    <contour>
      <point x="202" y="373" type="curve" smooth="yes"/>
      <point x="170" y="373"/>
      <point x="152" y="399"/>
      <point x="152" y="439" type="curve" smooth="yes"/>
      <point x="152" y="508"/>
      <point x="199" y="589"/>
      <point x="262" y="589" type="curve" smooth="yes"/>
      <point x="293" y="589"/>
      <point x="311" y="564"/>
      <point x="311" y="523" type="curve" smooth="yes"/>
      <point x="311" y="455"/>
      <point x="263" y="373"/>
    </contour>
  </outline>
</glyph>
<glyph name="four.superior" format="2">
  <advance width="415"/>
  <unicode hex="2074"/>
  <outline>
    <contour>
      <point x="312" y="275" type="line"/>
      <point x="328" y="348" type="line"/>
      <point x="377" y="348" type="line"/>
      <point x="397" y="444" type="line"/>
      <point x="347" y="444" type="line"/>
      <point x="398" y="687" type="line"/>
      <point x="254" y="687" type="line"/>
      <point x="20" y="436" type="line"/>
      <point x="13" y="348" type="line"/>
      <point x="211" y="348" type="line"/>
      <point x="196" y="275" type="line"/>
    </contour>
    <contour>
      <point x="258" y="568" type="line"/>
      <point x="231" y="444" type="line"/>
      <point x="144" y="444" type="line"/>
    </contour>
  </outline>
</glyph>
<glyph name="five.superior" format="2">
  <advance width="397"/>
  <unicode hex="2075"/>
  <outline>
    <contour>
      <point x="166" y="267" type="curve" smooth="yes"/>
      <point x="279" y="267"/>
      <point x="367" y="333"/>
      <point x="367" y="439" type="curve" smooth="yes"/>
      <point x="367" y="508"/>
      <point x="316" y="547"/>
      <point x="249" y="547" type="curve" smooth="yes"/>
      <point x="222" y="547"/>
      <point x="196" y="541"/>
      <point x="174" y="527" type="curve"/>
      <point x="191" y="583" type="line"/>
      <point x="377" y="583" type="line"/>
      <point x="399" y="687" type="line"/>
      <point x="106" y="687" type="line"/>
      <point x="52" y="457" type="line"/>
      <point x="125" y="426" type="line"/>
      <point x="148" y="441"/>
      <point x="175" y="453"/>
      <point x="207" y="453" type="curve" smooth="yes"/>
      <point x="236" y="453"/>
      <point x="251" y="444"/>
      <point x="251" y="427" type="curve" smooth="yes"/>
      <point x="251" y="394"/>
      <point x="214" y="367"/>
      <point x="172" y="367" type="curve" smooth="yes"/>
      <point x="140" y="367"/>
      <point x="108" y="382"/>
      <point x="83" y="408" type="curve"/>
      <point x="5" y="332" type="line"/>
      <point x="40" y="294"/>
      <point x="90" y="267"/>
    </contour>
  </outline>
</glyph>
<glyph name="six.superior" format="2">
  <advance width="406"/>
  <unicode hex="2076"/>
  <outline>
    <contour>
      <point x="190" y="268" type="curve" smooth="yes"/>
      <point x="293" y="268"/>
      <point x="381" y="339"/>
      <point x="381" y="438" type="curve" smooth="yes"/>
      <point x="381" y="505"/>
      <point x="330" y="547"/>
      <point x="259" y="547" type="curve" smooth="yes"/>
      <point x="217" y="547"/>
      <point x="167" y="531"/>
      <point x="140" y="501" type="curve"/>
      <point x="130" y="379" type="line"/>
      <point x="140" y="420"/>
      <point x="178" y="454"/>
      <point x="218" y="454" type="curve" smooth="yes"/>
      <point x="241" y="454"/>
      <point x="260" y="445"/>
      <point x="260" y="426" type="curve" smooth="yes"/>
      <point x="260" y="394"/>
      <point x="226" y="366"/>
      <point x="188" y="366" type="curve" smooth="yes"/>
      <point x="158" y="366"/>
      <point x="146" y="376"/>
      <point x="146" y="403" type="curve" smooth="yes"/>
      <point x="146" y="492"/>
      <point x="192" y="593"/>
      <point x="275" y="593" type="curve" smooth="yes"/>
      <point x="303" y="593"/>
      <point x="323" y="586"/>
      <point x="344" y="568" type="curve"/>
      <point x="410" y="651" type="line"/>
      <point x="377" y="676"/>
      <point x="337" y="694"/>
      <point x="280" y="694" type="curve" smooth="yes"/>
      <point x="133" y="694"/>
      <point x="32" y="570"/>
      <point x="32" y="419" type="curve" smooth="yes"/>
      <point x="32" y="328"/>
      <point x="83" y="268"/>
    </contour>
  </outline>
</glyph>
<glyph name="seven.superior" format="2">
  <advance width="371"/>
  <unicode hex="2077"/>
  <outline>
    <contour>
      <point x="158" y="275" type="line"/>
      <point x="384" y="600" type="line"/>
      <point x="401" y="687" type="line"/>
      <point x="76" y="687" type="line"/>
      <point x="54" y="583" type="line"/>
      <point x="244" y="583" type="line"/>
      <point x="24" y="275" type="line"/>
    </contour>
  </outline>
</glyph>
<glyph name="eight.superior" format="2">
  <advance width="405"/>
  <unicode hex="2078"/>
  <outline>
    <contour>
      <point x="176" y="268" type="curve" smooth="yes"/>
      <point x="274" y="268"/>
      <point x="370" y="311"/>
      <point x="370" y="401" type="curve" smooth="yes"/>
      <point x="370" y="439"/>
      <point x="349" y="468"/>
      <point x="315" y="484" type="curve"/>
      <point x="366" y="507"/>
      <point x="399" y="540"/>
      <point x="399" y="594" type="curve" smooth="yes"/>
      <point x="399" y="657"/>
      <point x="333" y="694"/>
      <point x="250" y="694" type="curve" smooth="yes"/>
      <point x="161" y="694"/>
      <point x="68" y="653"/>
      <point x="68" y="567" type="curve" smooth="yes"/>
      <point x="68" y="529"/>
      <point x="89" y="505"/>
      <point x="114" y="492" type="curve"/>
      <point x="59" y="470"/>
      <point x="17" y="432"/>
      <point x="17" y="373" type="curve" smooth="yes"/>
      <point x="17" y="306"/>
      <point x="86" y="268"/>
    </contour>
    <contour>
      <point x="181" y="364" type="curve" smooth="yes"/>
      <point x="153" y="364"/>
      <point x="136" y="372"/>
      <point x="136" y="386" type="curve" smooth="yes"/>
      <point x="136" y="414"/>
      <point x="176" y="436"/>
      <point x="211" y="438" type="curve"/>
      <point x="236" y="437"/>
      <point x="257" y="429"/>
      <point x="257" y="414" type="curve" smooth="yes"/>
      <point x="257" y="386"/>
      <point x="218" y="364"/>
    </contour>
    <contour>
      <point x="215" y="527" type="curve"/>
      <point x="194" y="528"/>
      <point x="178" y="537"/>
      <point x="178" y="550" type="curve" smooth="yes"/>
      <point x="178" y="576"/>
      <point x="211" y="599"/>
      <point x="245" y="599" type="curve" smooth="yes"/>
      <point x="269" y="599"/>
      <point x="283" y="591"/>
      <point x="283" y="578" type="curve" smooth="yes"/>
      <point x="283" y="553"/>
      <point x="248" y="529"/>
    </contour>
  </outline>
</glyph>
<glyph name="nine.superior" format="2">
  <advance width="407"/>
  <unicode hex="2079"/>
  <outline>
    <contour>
      <point x="238" y="694" type="curve" smooth="yes"/>
      <point x="135" y="694"/>
      <point x="47" y="623"/>
      <point x="47" y="524" type="curve" smooth="yes"/>
      <point x="47" y="457"/>
      <point x="98" y="415"/>
      <point x="169" y="415" type="curve" smooth="yes"/>
      <point x="211" y="415"/>
      <point x="261" y="431"/>
      <point x="288" y="461" type="curve"/>
      <point x="298" y="583" type="line"/>
      <point x="288" y="542"/>
      <point x="250" y="508"/>
      <point x="210" y="508" type="curve" smooth="yes"/>
      <point x="187" y="508"/>
      <point x="168" y="517"/>
      <point x="168" y="536" type="curve" smooth="yes"/>
      <point x="168" y="568"/>
      <point x="202" y="596"/>
      <point x="240" y="596" type="curve" smooth="yes"/>
      <point x="270" y="596"/>
      <point x="282" y="586"/>
      <point x="282" y="559" type="curve" smooth="yes"/>
      <point x="282" y="470"/>
      <point x="236" y="369"/>
      <point x="153" y="369" type="curve" smooth="yes"/>
      <point x="125" y="369"/>
      <point x="105" y="376"/>
      <point x="84" y="394" type="curve"/>
      <point x="18" y="311" type="line"/>
      <point x="51" y="286"/>
      <point x="91" y="268"/>
      <point x="148" y="268" type="curve" smooth="yes"/>
      <point x="295" y="268"/>
      <point x="396" y="392"/>
      <point x="396" y="543" type="curve" smooth="yes"/>
      <point x="396" y="634"/>
      <point x="345" y="694"/>
    </contour>
  </outline>
</glyph>
<glyph name="zero.inferior" format="2">
  <advance width="442"/>
  <unicode hex="2080"/>
  <outline>
    <contour>
      <point x="194" y="-7" type="curve" smooth="yes"/>
      <point x="329" y="-7"/>
      <point x="430" y="116"/>
      <point x="430" y="253" type="curve" smooth="yes"/>
      <point x="430" y="353"/>
      <point x="368" y="419"/>
      <point x="268" y="419" type="curve" smooth="yes"/>
      <point x="134" y="419"/>
      <point x="33" y="296"/>
      <point x="33" y="159" type="curve" smooth="yes"/>
      <point x="33" y="59"/>
      <point x="95" y="-7"/>
    </contour>
    <contour>
      <point x="202" y="98" type="curve" smooth="yes"/>
      <point x="170" y="98"/>
      <point x="152" y="124"/>
      <point x="152" y="164" type="curve" smooth="yes"/>
      <point x="152" y="233"/>
      <point x="199" y="314"/>
      <point x="262" y="314" type="curve" smooth="yes"/>
      <point x="293" y="314"/>
      <point x="311" y="289"/>
      <point x="311" y="248" type="curve" smooth="yes"/>
      <point x="311" y="180"/>
      <point x="263" y="98"/>
    </contour>
  </outline>
</glyph>
<glyph name="one.inferior" format="2">
  <advance width="295"/>
  <unicode hex="2081"/>
  <outline>
    <contour>
      <point x="212" y="0" type="line"/>
      <point x="298" y="412" type="line"/>
      <point x="205" y="412" type="line"/>
      <point x="49" y="320" type="line"/>
      <point x="79" y="239" type="line"/>
      <point x="155" y="281" type="line"/>
      <point x="96" y="0" type="line"/>
    </contour>
  </outline>
</glyph>
<glyph name="two.inferior" format="2">
  <advance width="396"/>
  <unicode hex="2082"/>
  <outline>
    <contour>
      <point x="330" y="0" type="line"/>
      <point x="352" y="104" type="line"/>
      <point x="201" y="104" type="line"/>
      <point x="264" y="136" type="line"/>
      <point x="337" y="178"/>
      <point x="386" y="224"/>
      <point x="386" y="301" type="curve" smooth="yes"/>
      <point x="386" y="370"/>
      <point x="332" y="419"/>
      <point x="242" y="419" type="curve" smooth="yes"/>
      <point x="178" y="419"/>
      <point x="118" y="395"/>
      <point x="62" y="341" type="curve"/>
      <point x="124" y="262" type="line"/>
      <point x="161" y="294"/>
      <point x="193" y="314"/>
      <point x="233" y="314" type="curve" smooth="yes"/>
      <point x="253" y="314"/>
      <point x="266" y="306"/>
      <point x="266" y="291" type="curve" smooth="yes"/>
      <point x="266" y="259"/>
      <point x="231" y="231"/>
      <point x="193" y="207" type="curve" smooth="yes"/>
      <point x="19" y="94" type="line"/>
      <point x="1" y="0" type="line"/>
    </contour>
  </outline>
</glyph>
<glyph name="three.inferior" format="2">
  <advance width="388"/>
  <unicode hex="2083"/>
  <outline>
    <contour>
      <point x="165" y="-8" type="curve" smooth="yes"/>
      <point x="263" y="-8"/>
      <point x="353" y="44"/>
      <point x="353" y="130" type="curve" smooth="yes"/>
      <point x="353" y="173"/>
      <point x="323" y="202"/>
      <point x="287" y="210" type="curve"/>
      <point x="344" y="226"/>
      <point x="383" y="263"/>
      <point x="383" y="319" type="curve" smooth="yes"/>
      <point x="383" y="377"/>
      <point x="332" y="419"/>
      <point x="238" y="419" type="curve" smooth="yes"/>
      <point x="163" y="419"/>
      <point x="107" y="391"/>
      <point x="62" y="350" type="curve"/>
      <point x="116" y="272" type="line"/>
      <point x="147" y="296"/>
      <point x="181" y="316"/>
      <point x="219" y="316" type="curve" smooth="yes"/>
      <point x="249" y="316"/>
      <point x="265" y="309"/>
      <point x="262" y="293" type="curve" smooth="yes"/>
      <point x="257" y="270"/>
      <point x="233" y="255"/>
      <point x="194" y="255" type="curve" smooth="yes"/>
      <point x="149" y="255" type="line"/>
      <point x="128" y="158" type="line"/>
      <point x="182" y="158" type="line" smooth="yes"/>
      <point x="226" y="159"/>
      <point x="238" y="154"/>
      <point x="238" y="142" type="curve" smooth="yes"/>
      <point x="238" y="115"/>
      <point x="203" y="96"/>
      <point x="165" y="96" type="curve" smooth="yes"/>
      <point x="134" y="96"/>
      <point x="98" y="106"/>
      <point x="74" y="135" type="curve"/>
      <point x="-2" y="64" type="line"/>
      <point x="29" y="23"/>
      <point x="83" y="-8"/>
    </contour>
  </outline>
</glyph>
<glyph name="four.inferior" format="2">
  <advance width="415"/>
  <unicode hex="2084"/>
  <outline>
    <contour>
      <point x="312" y="0" type="line"/>
      <point x="328" y="73" type="line"/>
      <point x="377" y="73" type="line"/>
      <point x="397" y="169" type="line"/>
      <point x="347" y="169" type="line"/>
      <point x="398" y="412" type="line"/>
      <point x="254" y="412" type="line"/>
      <point x="20" y="161" type="line"/>
      <point x="13" y="73" type="line"/>
      <point x="211" y="73" type="line"/>
      <point x="196" y="0" type="line"/>
    </contour>
    <contour>
      <point x="258" y="293" type="line"/>
      <point x="231" y="169" type="line"/>
      <point x="144" y="169" type="line"/>
    </contour>
  </outline>
</glyph>
<glyph name="five.inferior" format="2">
  <advance width="397"/>
  <unicode hex="2085"/>
  <outline>
    <contour>
      <point x="166" y="-8" type="curve" smooth="yes"/>
      <point x="279" y="-8"/>
      <point x="367" y="58"/>
      <point x="367" y="164" type="curve" smooth="yes"/>
      <point x="367" y="233"/>
      <point x="316" y="272"/>
      <point x="249" y="272" type="curve" smooth="yes"/>
      <point x="222" y="272"/>
      <point x="196" y="266"/>
      <point x="174" y="252" type="curve"/>
      <point x="191" y="308" type="line"/>
      <point x="377" y="308" type="line"/>
      <point x="399" y="412" type="line"/>
      <point x="106" y="412" type="line"/>
      <point x="52" y="182" type="line"/>
      <point x="125" y="151" type="line"/>
      <point x="148" y="166"/>
      <point x="175" y="178"/>
      <point x="207" y="178" type="curve" smooth="yes"/>
      <point x="236" y="178"/>
      <point x="251" y="169"/>
      <point x="251" y="152" type="curve" smooth="yes"/>
      <point x="251" y="119"/>
      <point x="214" y="92"/>
      <point x="172" y="92" type="curve" smooth="yes"/>
      <point x="140" y="92"/>
      <point x="108" y="107"/>
      <point x="83" y="133" type="curve"/>
      <point x="5" y="57" type="line"/>
      <point x="40" y="19"/>
      <point x="90" y="-8"/>
    </contour>
  </outline>
</glyph>
<glyph name="six.inferior" format="2">
  <advance width="406"/>
  <unicode hex="2086"/>
  <outline>
    <contour>
      <point x="190" y="-7" type="curve" smooth="yes"/>
      <point x="293" y="-7"/>
      <point x="381" y="64"/>
      <point x="381" y="163" type="curve" smooth="yes"/>
      <point x="381" y="230"/>
      <point x="330" y="272"/>
      <point x="259" y="272" type="curve" smooth="yes"/>
      <point x="217" y="272"/>
      <point x="167" y="256"/>
      <point x="140" y="226" type="curve"/>
      <point x="130" y="104" type="line"/>
      <point x="140" y="145"/>
      <point x="178" y="179"/>
      <point x="218" y="179" type="curve" smooth="yes"/>
      <point x="241" y="179"/>
      <point x="260" y="170"/>
      <point x="260" y="151" type="curve" smooth="yes"/>
      <point x="260" y="119"/>
      <point x="226" y="91"/>
      <point x="188" y="91" type="curve" smooth="yes"/>
      <point x="158" y="91"/>
      <point x="146" y="101"/>
      <point x="146" y="128" type="curve" smooth="yes"/>
      <point x="146" y="217"/>
      <point x="192" y="318"/>
      <point x="275" y="318" type="curve" smooth="yes"/>
      <point x="303" y="318"/>
      <point x="323" y="311"/>
      <point x="344" y="293" type="curve"/>
      <point x="410" y="376" type="line"/>
      <point x="377" y="401"/>
      <point x="337" y="419"/>
      <point x="280" y="419" type="curve" smooth="yes"/>
      <point x="133" y="419"/>
      <point x="32" y="295"/>
      <point x="32" y="144" type="curve" smooth="yes"/>
      <point x="32" y="53"/>
      <point x="83" y="-7"/>
    </contour>
  </outline>
</glyph>
<glyph name="seven.inferior" format="2">
  <advance width="371"/>
  <unicode hex="2087"/>
  <outline>
    <contour>
      <point x="158" y="0" type="line"/>
      <point x="384" y="325" type="line"/>
      <point x="401" y="412" type="line"/>
      <point x="76" y="412" type="line"/>
      <point x="54" y="308" type="line"/>
      <point x="244" y="308" type="line"/>
      <point x="24" y="0" type="line"/>
    </contour>
  </outline>
</glyph>
<glyph name="eight.inferior" format="2">
  <advance width="405"/>
  <unicode hex="2088"/>
  <outline>
    <contour>
      <point x="176" y="-7" type="curve" smooth="yes"/>
      <point x="274" y="-7"/>
      <point x="370" y="36"/>
      <point x="370" y="126" type="curve" smooth="yes"/>
      <point x="370" y="164"/>
      <point x="349" y="193"/>
      <point x="315" y="209" type="curve"/>
      <point x="366" y="232"/>
      <point x="399" y="265"/>
      <point x="399" y="319" type="curve" smooth="yes"/>
      <point x="399" y="382"/>
      <point x="333" y="419"/>
      <point x="250" y="419" type="curve" smooth="yes"/>
      <point x="161" y="419"/>
      <point x="68" y="378"/>
      <point x="68" y="292" type="curve" smooth="yes"/>
      <point x="68" y="254"/>
      <point x="89" y="230"/>
      <point x="114" y="217" type="curve"/>
      <point x="59" y="195"/>
      <point x="17" y="157"/>
      <point x="17" y="98" type="curve" smooth="yes"/>
      <point x="17" y="31"/>
      <point x="86" y="-7"/>
    </contour>
    <contour>
      <point x="181" y="89" type="curve" smooth="yes"/>
      <point x="153" y="89"/>
      <point x="136" y="97"/>
      <point x="136" y="111" type="curve" smooth="yes"/>
      <point x="136" y="139"/>
      <point x="176" y="161"/>
      <point x="211" y="163" type="curve"/>
      <point x="236" y="162"/>
      <point x="257" y="154"/>
      <point x="257" y="139" type="curve" smooth="yes"/>
      <point x="257" y="111"/>
      <point x="218" y="89"/>
    </contour>
    <contour>
      <point x="215" y="252" type="curve"/>
      <point x="194" y="253"/>
      <point x="178" y="262"/>
      <point x="178" y="275" type="curve" smooth="yes"/>
      <point x="178" y="301"/>
      <point x="211" y="324"/>
      <point x="245" y="324" type="curve" smooth="yes"/>
      <point x="269" y="324"/>
      <point x="283" y="316"/>
      <point x="283" y="303" type="curve" smooth="yes"/>
      <point x="283" y="278"/>
      <point x="248" y="254"/>
    </contour>
  </outline>
</glyph>
<glyph name="nine.inferior" format="2">
  <advance width="407"/>
  <unicode hex="2089"/>
  <outline>
    <contour>
      <point x="238" y="419" type="curve" smooth="yes"/>
      <point x="135" y="419"/>
      <point x="47" y="348"/>
      <point x="47" y="249" type="curve" smooth="yes"/>
      <point x="47" y="182"/>
      <point x="98" y="140"/>
      <point x="169" y="140" type="curve" smooth="yes"/>
      <point x="211" y="140"/>
      <point x="261" y="156"/>
      <point x="288" y="186" type="curve"/>
      <point x="298" y="308" type="line"/>
      <point x="288" y="267"/>
      <point x="250" y="233"/>
      <point x="210" y="233" type="curve" smooth="yes"/>
      <point x="187" y="233"/>
      <point x="168" y="242"/>
      <point x="168" y="261" type="curve" smooth="yes"/>
      <point x="168" y="293"/>
      <point x="202" y="321"/>
      <point x="240" y="321" type="curve" smooth="yes"/>
      <point x="270" y="321"/>
      <point x="282" y="311"/>
      <point x="282" y="284" type="curve" smooth="yes"/>
      <point x="282" y="195"/>
      <point x="236" y="94"/>
      <point x="153" y="94" type="curve" smooth="yes"/>
      <point x="125" y="94"/>
      <point x="105" y="101"/>
      <point x="84" y="119" type="curve"/>
      <point x="18" y="36" type="line"/>
      <point x="51" y="11"/>
      <point x="91" y="-7"/>
      <point x="148" y="-7" type="curve" smooth="yes"/>
      <point x="295" y="-7"/>
      <point x="396" y="117"/>
      <point x="396" y="268" type="curve" smooth="yes"/>
      <point x="396" y="359"/>
      <point x="345" y="419"/>
    </contour>
  </outline>
</glyph>
<glyph name="dong" format="2">
  <advance width="706"/>
  <unicode hex="20AB"/>
  <outline>
    <contour>
      <point x="568" y="-61" type="line"/>
      <point x="21" y="-61" type="line"/>
      <point x="0" y="-159" type="line"/>
      <point x="547" y="-159" type="line"/>
    </contour>
    <contour>
      <point x="716" y="699" type="line"/>
      <point x="523" y="699" type="line"/>
      <point x="514" y="655" type="line"/>
      <point x="373" y="655" type="line"/>
      <point x="354" y="565" type="line"/>
      <point x="495" y="565" type="line"/>
      <point x="471" y="446" type="line"/>
      <point x="434" y="504"/>
      <point x="378" y="529"/>
      <point x="310" y="529" type="curve" smooth="yes"/>
      <point x="135" y="529"/>
      <point x="24" y="363"/>
      <point x="24" y="200" type="curve" smooth="yes"/>
      <point x="24" y="77"/>
      <point x="95" y="-12"/>
      <point x="222" y="-12" type="curve" smooth="yes"/>
      <point x="285" y="-12"/>
      <point x="342" y="10"/>
      <point x="389" y="52" type="curve"/>
      <point x="378" y="0" type="line"/>
      <point x="571" y="0" type="line"/>
      <point x="688" y="565" type="line"/>
      <point x="744" y="565" type="line"/>
      <point x="763" y="655" type="line"/>
      <point x="707" y="655" type="line"/>
    </contour>
    <contour>
      <point x="208" y="221" type="curve" smooth="yes"/>
      <point x="208" y="303"/>
      <point x="283" y="369"/>
      <point x="363" y="369" type="curve" smooth="yes"/>
      <point x="407" y="369"/>
      <point x="437" y="343"/>
      <point x="437" y="298" type="curve" smooth="yes"/>
      <point x="437" y="221"/>
      <point x="370" y="148"/>
      <point x="292" y="148" type="curve" smooth="yes"/>
      <point x="245" y="148"/>
      <point x="208" y="171"/>
    </contour>
  </outline>
</glyph>
<glyph name="arrowup" format="2">
  <advance width="950"/>
  <unicode hex="2191"/>
  <outline>
    <contour>
      <point x="191" y="254" type="line"/>
      <point x="346" y="408" type="line"/>
      <point x="366" y="429"/>
      <point x="385" y="450"/>
      <point x="404" y="471" type="curve"/>
      <point x="402" y="444"/>
      <point x="402" y="418"/>
      <point x="401" y="391" type="curve"/>
      <point x="402" y="0" type="line"/>
      <point x="549" y="0" type="line"/>
      <point x="549" y="385" type="line" smooth="yes"/>
      <point x="549" y="413"/>
      <point x="548" y="442"/>
      <point x="547" y="470" type="curve"/>
      <point x="566" y="449"/>
      <point x="584" y="428"/>
      <point x="604" y="408" type="curve" smooth="yes"/>
      <point x="760" y="254" type="line"/>
      <point x="859" y="354" type="line"/>
      <point x="476" y="739" type="line"/>
      <point x="91" y="354" type="line"/>
    </contour>
  </outline>
</glyph>
<glyph name="arrowright" format="2">
  <advance width="938"/>
  <unicode hex="2192"/>
  <outline>
    <contour>
      <point x="848" y="318" type="line"/>
      <point x="463" y="703" type="line"/>
      <point x="362" y="602" type="line"/>
      <point x="433" y="531"/>
      <point x="502" y="456"/>
      <point x="578" y="390" type="curve"/>
      <point x="547" y="391"/>
      <point x="515" y="392"/>
      <point x="483" y="393" type="curve"/>
      <point x="117" y="392" type="line"/>
      <point x="117" y="245" type="line"/>
      <point x="493" y="245" type="line" smooth="yes"/>
      <point x="522" y="245"/>
      <point x="551" y="246"/>
      <point x="580" y="247" type="curve"/>
      <point x="504" y="180"/>
      <point x="434" y="105"/>
      <point x="363" y="34" type="curve"/>
      <point x="463" y="-66" type="line"/>
    </contour>
  </outline>
</glyph>
<glyph name="arrowupdn" format="2">
  <advance width="884"/>
  <unicode hex="2195"/>
  <outline>
    <contour>
      <point x="794" y="99" type="line"/>
      <point x="694" y="200" type="line"/>
      <point x="633" y="140"/>
      <point x="571" y="81"/>
      <point x="514" y="16" type="curve"/>
      <point x="515" y="44"/>
      <point x="516" y="73"/>
      <point x="516" y="101" type="curve" smooth="yes"/>
      <point x="516" y="536" type="line" smooth="yes"/>
      <point x="516" y="564"/>
      <point x="515" y="593"/>
      <point x="514" y="621" type="curve"/>
      <point x="568" y="555"/>
      <point x="634" y="497"/>
      <point x="694" y="437" type="curve"/>
      <point x="794" y="538" type="line"/>
      <point x="442" y="890" type="line"/>
      <point x="91" y="538" type="line"/>
      <point x="191" y="437" type="line"/>
      <point x="252" y="498"/>
      <point x="314" y="556"/>
      <point x="371" y="621" type="curve"/>
      <point x="370" y="593"/>
      <point x="369" y="564"/>
      <point x="369" y="536" type="curve" smooth="yes"/>
      <point x="369" y="101" type="line" smooth="yes"/>
      <point x="369" y="73"/>
      <point x="370" y="44"/>
      <point x="371" y="16" type="curve"/>
      <point x="314" y="81"/>
      <point x="252" y="139"/>
      <point x="191" y="200" type="curve"/>
      <point x="91" y="99" type="line"/>
      <point x="442" y="-253" type="line"/>
    </contour>
  </outline>
</glyph>
<glyph name="arrowNE" format="2">
  <advance width="707"/>
  <unicode hex="2197"/>
  <outline>
    <contour>
      <point x="610" y="516" type="line"/>
      <point x="94" y="516" type="line"/>
      <point x="94" y="369" type="line"/>
      <point x="285" y="369" type="line" smooth="yes"/>
      <point x="312" y="369"/>
      <point x="338" y="371"/>
      <point x="365" y="372" type="curve"/>
      <point x="338" y="347"/>
      <point x="311" y="322"/>
      <point x="285" y="296" type="curve" smooth="yes"/>
      <point x="83" y="93" type="line"/>
      <point x="187" y="-12" type="line"/>
      <point x="394" y="195" type="line" smooth="yes"/>
      <point x="419" y="220"/>
      <point x="442" y="245"/>
      <point x="466" y="270" type="curve"/>
      <point x="465" y="243"/>
      <point x="463" y="216"/>
      <point x="463" y="189" type="curve" smooth="yes"/>
      <point x="463" y="0" type="line"/>
      <point x="610" y="0" type="line"/>
    </contour>
  </outline>
</glyph>
<glyph name="arrowlefthook" format="2">
  <advance width="1155"/>
  <unicode hex="21A9"/>
  <outline>
    <contour>
      <point x="576" y="34" type="line"/>
      <point x="504" y="106"/>
      <point x="435" y="180"/>
      <point x="359" y="247" type="curve"/>
      <point x="409" y="244"/>
      <point x="460" y="245"/>
      <point x="510" y="245" type="curve"/>
      <point x="814" y="245" type="line"/>
      <point x="958" y="245"/>
      <point x="1079" y="349"/>
      <point x="1079" y="497" type="curve" smooth="yes"/>
      <point x="1079" y="645"/>
      <point x="958" y="750"/>
      <point x="814" y="750" type="curve" smooth="yes"/>
      <point x="761" y="750" type="line"/>
      <point x="761" y="603" type="line"/>
      <point x="811" y="603" type="line" smooth="yes"/>
      <point x="872" y="603"/>
      <point x="920" y="559"/>
      <point x="920" y="497" type="curve" smooth="yes"/>
      <point x="920" y="435"/>
      <point x="872" y="392"/>
      <point x="811" y="392" type="curve"/>
      <point x="510" y="392" type="line"/>
      <point x="460" y="392"/>
      <point x="410" y="393"/>
      <point x="360" y="390" type="curve"/>
      <point x="436" y="457"/>
      <point x="505" y="531"/>
      <point x="576" y="603" type="curve"/>
      <point x="476" y="702" type="line"/>
      <point x="91" y="318" type="line"/>
      <point x="476" y="-66" type="line"/>
    </contour>
  </outline>
</glyph>
<glyph name="arrowrightdowntip" format="2">
  <advance width="1016"/>
  <unicode hex="21B3"/>
  <outline>
    <contour>
      <point x="926" y="318" type="line"/>
      <point x="658" y="579" type="line"/>
      <point x="658" y="392" type="line"/>
      <point x="236" y="392" type="line"/>
      <point x="236" y="728" type="line"/>
      <point x="92" y="728" type="line"/>
      <point x="92" y="244" type="line"/>
      <point x="658" y="244" type="line"/>
      <point x="658" y="58" type="line"/>
    </contour>
  </outline>
</glyph>
<glyph name="arrowclockwiseopencircle" format="2">
  <advance width="938"/>
  <unicode hex="21BB"/>
  <outline>
    <contour>
      <point x="470" y="0" type="curve" smooth="yes"/>
      <point x="671" y="0"/>
      <point x="833" y="162"/>
      <point x="833" y="363" type="curve"/>
      <point x="686" y="363" type="line"/>
      <point x="686" y="245"/>
      <point x="588" y="147"/>
      <point x="470" y="147" type="curve" smooth="yes"/>
      <point x="351" y="147"/>
      <point x="254" y="244"/>
      <point x="254" y="363" type="curve" smooth="yes"/>
      <point x="254" y="477"/>
      <point x="342" y="575"/>
      <point x="458" y="579" type="curve"/>
      <point x="458" y="389" type="line"/>
      <point x="726" y="649" type="line"/>
      <point x="458" y="910" type="line"/>
      <point x="458" y="728" type="line"/>
      <point x="261" y="720"/>
      <point x="105" y="561"/>
      <point x="105" y="363" type="curve" smooth="yes"/>
      <point x="105" y="162"/>
      <point x="270" y="0"/>
    </contour>
  </outline>
</glyph>
<glyph name="arrowlefttobar" format="2">
  <advance width="1063"/>
  <unicode hex="21E4"/>
  <outline>
    <contour>
      <point x="567" y="290" type="line"/>
      <point x="980" y="290" type="line"/>
      <point x="980" y="438" type="line"/>
      <point x="567" y="438" type="line"/>
      <point x="567" y="624" type="line"/>
      <point x="300" y="363" type="line"/>
      <point x="567" y="103" type="line"/>
    </contour>
    <contour>
      <point x="228" y="104" type="line"/>
      <point x="228" y="624" type="line"/>
      <point x="83" y="624" type="line"/>
      <point x="83" y="104" type="line"/>
    </contour>
  </outline>
</glyph>
<glyph name="minus" format="2">
  <advance width="651"/>
  <unicode hex="2212"/>
  <outline>
    <contour>
      <point x="575" y="259" type="line"/>
      <point x="606" y="408" type="line"/>
      <point x="107" y="408" type="line"/>
      <point x="76" y="259" type="line"/>
    </contour>
  </outline>
</glyph>
<glyph name="Euro.tf" format="2">
  <advance width="700"/>
  <anchor x="359" y="0" name="bottom"/>
  <anchor x="499" y="687" name="top"/>
  <outline>
    <contour>
      <point x="472" y="247" type="line"/>
      <point x="488" y="324" type="line"/>
      <point x="22" y="324" type="line"/>
      <point x="6" y="247" type="line"/>
    </contour>
    <contour>
      <point x="498" y="372" type="line"/>
      <point x="514" y="449" type="line"/>
      <point x="48" y="449" type="line"/>
      <point x="32" y="372" type="line"/>
    </contour>
    <contour>
      <point x="371" y="-12" type="curve" smooth="yes"/>
      <point x="472" y="-12"/>
      <point x="593" y="36"/>
      <point x="669" y="104" type="curve"/>
      <point x="546" y="240" type="line"/>
      <point x="504" y="195"/>
      <point x="437" y="164"/>
      <point x="386" y="164" type="curve" smooth="yes"/>
      <point x="320" y="164"/>
      <point x="255" y="215"/>
      <point x="255" y="302" type="curve" smooth="yes"/>
      <point x="255" y="414"/>
      <point x="364" y="523"/>
      <point x="479" y="523" type="curve" smooth="yes"/>
      <point x="536" y="523"/>
      <point x="578" y="496"/>
      <point x="600" y="459" type="curve"/>
      <point x="760" y="573" type="line"/>
      <point x="705" y="645"/>
      <point x="606" y="699"/>
      <point x="488" y="699" type="curve" smooth="yes"/>
      <point x="265" y="699"/>
      <point x="58" y="508"/>
      <point x="58" y="298" type="curve" smooth="yes"/>
      <point x="58" y="123"/>
      <point x="201" y="-12"/>
    </contour>
  </outline>
</glyph>
<glyph name="a.alt" format="2">
  <advance width="673"/>
  <anchor x="564" y="0" name="bottom"/>
  <anchor x="395" y="517" name="top"/>
  <outline>
    <contour>
      <point x="216" y="-12" type="curve" smooth="yes"/>
      <point x="380" y="-12"/>
      <point x="498" y="148"/>
      <point x="498" y="319" type="curve" smooth="yes"/>
      <point x="498" y="444"/>
      <point x="423" y="529"/>
      <point x="304" y="529" type="curve" smooth="yes"/>
      <point x="138" y="529"/>
      <point x="18" y="369"/>
      <point x="18" y="200" type="curve" smooth="yes"/>
      <point x="18" y="74"/>
      <point x="94" y="-12"/>
    </contour>
    <contour>
      <point x="286" y="148" type="curve" smooth="yes"/>
      <point x="233" y="148"/>
      <point x="202" y="176"/>
      <point x="202" y="221" type="curve" smooth="yes"/>
      <point x="202" y="298"/>
      <point x="273" y="369"/>
      <point x="357" y="369" type="curve" smooth="yes"/>
      <point x="403" y="369"/>
      <point x="431" y="342"/>
      <point x="431" y="298" type="curve" smooth="yes"/>
      <point x="431" y="226"/>
      <point x="366" y="148"/>
    </contour>
    <contour>
      <point x="564" y="0" type="line"/>
      <point x="672" y="517" type="line"/>
      <point x="479" y="517" type="line"/>
      <point x="371" y="0" type="line"/>
    </contour>
  </outline>
</glyph>
<glyph name="ascender" format="2">
  <advance width="380"/>
  <anchor x="245" y="108" name="k_arms"/>
  <anchor x="97" y="275" name="loop_left"/>
  <anchor x="284" y="247" name="loop_right"/>
  <anchor x="291" y="282" name="shoulder"/>
  <outline>
    <contour>
      <point x="233" y="0" type="line"/>
      <point x="378" y="699" type="line"/>
      <point x="185" y="699" type="line"/>
      <point x="40" y="0" type="line"/>
    </contour>
  </outline>
</glyph>
<glyph name="breveacute.case" format="2">
  <advance width="749"/>
  <outline>
    <contour>
      <point x="413" y="869" type="line"/>
      <point x="539" y="869" type="line"/>
      <point x="712" y="964" type="line"/>
      <point x="550" y="984" type="line"/>
    </contour>
    <contour>
      <point x="304" y="795" type="line"/>
      <point x="346" y="761"/>
      <point x="403" y="746"/>
      <point x="465" y="746" type="curve" smooth="yes"/>
      <point x="535" y="746"/>
      <point x="596" y="764"/>
      <point x="646" y="795" type="curve"/>
      <point x="583" y="847" type="line"/>
      <point x="554" y="830"/>
      <point x="520" y="817"/>
      <point x="480" y="817" type="curve" smooth="yes"/>
      <point x="444" y="817"/>
      <point x="413" y="827"/>
      <point x="389" y="847" type="curve"/>
    </contour>
  </outline>
</glyph>
<glyph name="breveacute" format="2">
  <advance width="587"/>
  <outline>
    <contour>
      <point x="355" y="751" type="line"/>
      <point x="481" y="751" type="line"/>
      <point x="662" y="887" type="line"/>
      <point x="502" y="915" type="line"/>
    </contour>
    <contour>
      <point x="240" y="646" type="line"/>
      <point x="279" y="597"/>
      <point x="334" y="575"/>
      <point x="396" y="575" type="curve" smooth="yes"/>
      <point x="466" y="575"/>
      <point x="529" y="602"/>
      <point x="582" y="646" type="curve"/>
      <point x="523" y="720" type="line"/>
      <point x="493" y="695"/>
      <point x="457" y="677"/>
      <point x="417" y="677" type="curve" smooth="yes"/>
      <point x="381" y="677"/>
      <point x="351" y="692"/>
      <point x="329" y="720" type="curve"/>
    </contour>
  </outline>
</glyph>
<glyph name="brevegrave.case" format="2">
  <advance width="749"/>
  <outline>
    <contour>
      <point x="310" y="964" type="line"/>
      <point x="441" y="869" type="line"/>
      <point x="567" y="869" type="line"/>
      <point x="480" y="984" type="line"/>
    </contour>
    <contour>
      <point x="304" y="795" type="line"/>
      <point x="346" y="761"/>
      <point x="403" y="746"/>
      <point x="465" y="746" type="curve" smooth="yes"/>
      <point x="535" y="746"/>
      <point x="596" y="764"/>
      <point x="646" y="795" type="curve"/>
      <point x="583" y="847" type="line"/>
      <point x="554" y="830"/>
      <point x="520" y="817"/>
      <point x="480" y="817" type="curve" smooth="yes"/>
      <point x="444" y="817"/>
      <point x="413" y="827"/>
      <point x="389" y="847" type="curve"/>
    </contour>
  </outline>
</glyph>
<glyph name="brevegrave" format="2">
  <advance width="587"/>
  <outline>
    <contour>
      <point x="260" y="887" type="line"/>
      <point x="383" y="751" type="line"/>
      <point x="509" y="751" type="line"/>
      <point x="432" y="915" type="line"/>
    </contour>
    <contour>
      <point x="240" y="646" type="line"/>
      <point x="279" y="597"/>
      <point x="334" y="575"/>
      <point x="396" y="575" type="curve" smooth="yes"/>
      <point x="466" y="575"/>
      <point x="529" y="602"/>
      <point x="582" y="646" type="curve"/>
      <point x="523" y="720" type="line"/>
      <point x="493" y="695"/>
      <point x="457" y="677"/>
      <point x="417" y="677" type="curve" smooth="yes"/>
      <point x="381" y="677"/>
      <point x="351" y="692"/>
      <point x="329" y="720" type="curve"/>
    </contour>
  </outline>
</glyph>
<glyph name="brevehoi.case" format="2">
  <advance width="749"/>
  <outline>
    <contour>
      <point x="431" y="843" type="line"/>
      <point x="524" y="843" type="line"/>
      <point x="525" y="849" type="line"/>
      <point x="585" y="862"/>
      <point x="650" y="887"/>
      <point x="650" y="937" type="curve" smooth="yes"/>
      <point x="650" y="979"/>
      <point x="575" y="984"/>
      <point x="530" y="984" type="curve" smooth="yes"/>
      <point x="485" y="984"/>
      <point x="441" y="978"/>
      <point x="399" y="968" type="curve"/>
      <point x="393" y="902" type="line"/>
      <point x="419" y="909"/>
      <point x="455" y="918"/>
      <point x="484" y="918" type="curve" smooth="yes"/>
      <point x="491" y="918"/>
      <point x="514" y="918"/>
      <point x="514" y="910" type="curve" smooth="yes"/>
      <point x="514" y="893"/>
      <point x="455" y="877"/>
      <point x="437" y="872" type="curve"/>
    </contour>
    <contour>
      <point x="304" y="795" type="line"/>
      <point x="346" y="761"/>
      <point x="402" y="746"/>
      <point x="464" y="746" type="curve" smooth="yes"/>
      <point x="534" y="746"/>
      <point x="596" y="764"/>
      <point x="646" y="795" type="curve"/>
      <point x="582" y="847" type="line"/>
      <point x="554" y="830"/>
      <point x="519" y="817"/>
      <point x="479" y="817" type="curve" smooth="yes"/>
      <point x="443" y="817"/>
      <point x="412" y="827"/>
      <point x="388" y="847" type="curve"/>
    </contour>
  </outline>
</glyph>
<glyph name="brevehoi" format="2">
  <advance width="587"/>
  <outline>
    <contour>
      <point x="371" y="714" type="line"/>
      <point x="464" y="714" type="line"/>
      <point x="466" y="723" type="line"/>
      <point x="527" y="741"/>
      <point x="598" y="777"/>
      <point x="598" y="849" type="curve" smooth="yes"/>
      <point x="598" y="908"/>
      <point x="527" y="915"/>
      <point x="482" y="915" type="curve" smooth="yes"/>
      <point x="437" y="915"/>
      <point x="393" y="907"/>
      <point x="350" y="893" type="curve"/>
      <point x="338" y="799" type="line"/>
      <point x="365" y="809"/>
      <point x="402" y="822"/>
      <point x="431" y="822" type="curve" smooth="yes"/>
      <point x="438" y="822"/>
      <point x="460" y="822"/>
      <point x="460" y="810" type="curve" smooth="yes"/>
      <point x="460" y="786"/>
      <point x="398" y="763"/>
      <point x="380" y="756" type="curve"/>
    </contour>
    <contour>
      <point x="240" y="646" type="line"/>
      <point x="279" y="597"/>
      <point x="334" y="575"/>
      <point x="396" y="575" type="curve" smooth="yes"/>
      <point x="466" y="575"/>
      <point x="529" y="602"/>
      <point x="582" y="646" type="curve"/>
      <point x="523" y="720" type="line"/>
      <point x="493" y="695"/>
      <point x="457" y="677"/>
      <point x="417" y="677" type="curve" smooth="yes"/>
      <point x="381" y="677"/>
      <point x="351" y="692"/>
      <point x="329" y="720" type="curve"/>
    </contour>
  </outline>
</glyph>
<glyph name="brevetilde.case" format="2">
  <advance width="749"/>
  <outline>
    <contour>
      <point x="302" y="881" type="curve"/>
      <point x="390" y="871" type="line"/>
      <point x="397" y="884"/>
      <point x="409" y="900"/>
      <point x="433" y="900" type="curve" smooth="yes"/>
      <point x="454" y="900"/>
      <point x="516" y="872"/>
      <point x="561" y="872" type="curve" smooth="yes"/>
      <point x="645" y="872"/>
      <point x="684" y="919"/>
      <point x="702" y="970" type="curve"/>
      <point x="614" y="980" type="line"/>
      <point x="607" y="967"/>
      <point x="595" y="951"/>
      <point x="571" y="951" type="curve" smooth="yes"/>
      <point x="550" y="951"/>
      <point x="488" y="979"/>
      <point x="443" y="979" type="curve" smooth="yes"/>
      <point x="359" y="979"/>
      <point x="321" y="931"/>
    </contour>
    <contour>
      <point x="304" y="795" type="line"/>
      <point x="346" y="761"/>
      <point x="403" y="746"/>
      <point x="465" y="746" type="curve" smooth="yes"/>
      <point x="535" y="746"/>
      <point x="596" y="764"/>
      <point x="646" y="795" type="curve"/>
      <point x="583" y="847" type="line"/>
      <point x="554" y="830"/>
      <point x="520" y="817"/>
      <point x="480" y="817" type="curve" smooth="yes"/>
      <point x="444" y="817"/>
      <point x="413" y="827"/>
      <point x="389" y="847" type="curve"/>
    </contour>
  </outline>
</glyph>
<glyph name="brevetilde" format="2">
  <advance width="587"/>
  <outline>
    <contour>
      <point x="245" y="768" type="curve"/>
      <point x="332" y="754" type="line"/>
      <point x="340" y="773"/>
      <point x="354" y="796"/>
      <point x="378" y="796" type="curve" smooth="yes"/>
      <point x="399" y="796"/>
      <point x="458" y="756"/>
      <point x="503" y="756" type="curve" smooth="yes"/>
      <point x="587" y="756"/>
      <point x="630" y="823"/>
      <point x="653" y="896" type="curve"/>
      <point x="566" y="910" type="line"/>
      <point x="558" y="891"/>
      <point x="544" y="868"/>
      <point x="520" y="868" type="curve" smooth="yes"/>
      <point x="499" y="868"/>
      <point x="440" y="908"/>
      <point x="395" y="908" type="curve" smooth="yes"/>
      <point x="311" y="908"/>
      <point x="268" y="840"/>
    </contour>
    <contour>
      <point x="240" y="646" type="line"/>
      <point x="279" y="597"/>
      <point x="334" y="575"/>
      <point x="396" y="575" type="curve" smooth="yes"/>
      <point x="466" y="575"/>
      <point x="529" y="602"/>
      <point x="582" y="646" type="curve"/>
      <point x="523" y="720" type="line"/>
      <point x="493" y="695"/>
      <point x="457" y="677"/>
      <point x="417" y="677" type="curve" smooth="yes"/>
      <point x="381" y="677"/>
      <point x="351" y="692"/>
      <point x="329" y="720" type="curve"/>
    </contour>
  </outline>
</glyph>
<glyph name="capital_V" format="2">
  <advance width="801"/>
  <outline>
    <contour>
      <point x="456" y="0" type="line"/>
      <point x="863" y="687" type="line"/>
      <point x="640" y="687" type="line"/>
      <point x="234" y="0" type="line"/>
    </contour>
    <contour>
      <point x="453" y="0" type="line"/>
      <point x="331" y="687" type="line"/>
      <point x="116" y="687" type="line"/>
      <point x="237" y="0" type="line"/>
    </contour>
  </outline>
</glyph>
<glyph name="cent.tf.rvrn" format="2">
  <advance width="700"/>
  <anchor x="326" y="0" name="bottom"/>
  <anchor x="419" y="517" name="top"/>
  <outline>
    <contour>
      <point x="373" y="-74" type="line"/>
      <point x="397" y="43" type="line"/>
      <point x="287" y="43" type="line"/>
      <point x="263" y="-74" type="line"/>
    </contour>
    <contour>
      <point x="487" y="473" type="line"/>
      <point x="511" y="589" type="line"/>
      <point x="401" y="589" type="line"/>
      <point x="377" y="473" type="line"/>
    </contour>
    <contour>
      <point x="343" y="-12" type="curve" smooth="yes"/>
      <point x="433" y="-12"/>
      <point x="511" y="21"/>
      <point x="575" y="81" type="curve"/>
      <point x="462" y="195" type="line"/>
      <point x="438" y="171"/>
      <point x="393" y="148"/>
      <point x="354" y="148" type="curve" smooth="yes"/>
      <point x="308" y="148"/>
      <point x="276" y="181"/>
      <point x="276" y="225" type="curve" smooth="yes"/>
      <point x="276" y="293"/>
      <point x="349" y="369"/>
      <point x="424" y="369" type="curve" smooth="yes"/>
      <point x="450" y="369"/>
      <point x="483" y="358"/>
      <point x="498" y="335" type="curve"/>
      <point x="638" y="427" type="line"/>
      <point x="598" y="485"/>
      <point x="532" y="529"/>
      <point x="434" y="529" type="curve" smooth="yes"/>
      <point x="267" y="529"/>
      <point x="95" y="391"/>
      <point x="95" y="222" type="curve" smooth="yes"/>
      <point x="95" y="91"/>
      <point x="199" y="-12"/>
    </contour>
  </outline>
</glyph>
<glyph name="circumflexacute.case" format="2">
  <advance width="749"/>
  <outline>
    <contour>
      <point x="896" y="947" type="line"/>
      <point x="734" y="966" type="line"/>
      <point x="598" y="852" type="line"/>
      <point x="724" y="852" type="line"/>
    </contour>
    <contour>
      <point x="648" y="744" type="line"/>
      <point x="561" y="852" type="line"/>
      <point x="406" y="852" type="line"/>
      <point x="276" y="744" type="line"/>
      <point x="393" y="744" type="line"/>
      <point x="478" y="791" type="line"/>
      <point x="540" y="744" type="line"/>
    </contour>
  </outline>
</glyph>
<glyph name="circumflexgrave.case" format="2">
  <advance width="749"/>
  <outline>
    <contour>
      <point x="497" y="947" type="line"/>
      <point x="629" y="852" type="line"/>
      <point x="755" y="852" type="line"/>
      <point x="667" y="966" type="line"/>
    </contour>
    <contour>
      <point x="648" y="744" type="line"/>
      <point x="561" y="852" type="line"/>
      <point x="406" y="852" type="line"/>
      <point x="276" y="744" type="line"/>
      <point x="393" y="744" type="line"/>
      <point x="478" y="791" type="line"/>
      <point x="540" y="744" type="line"/>
    </contour>
  </outline>
</glyph>
<glyph name="circumflexgrave" format="2">
  <advance width="587"/>
  <outline>
    <contour>
      <point x="446" y="864" type="line"/>
      <point x="570" y="728" type="line"/>
      <point x="696" y="728" type="line"/>
      <point x="618" y="892" type="line"/>
    </contour>
    <contour>
      <point x="579" y="574" type="line"/>
      <point x="502" y="728" type="line"/>
      <point x="347" y="728" type="line"/>
      <point x="207" y="574" type="line"/>
      <point x="324" y="574" type="line"/>
      <point x="413" y="641" type="line"/>
      <point x="471" y="574" type="line"/>
    </contour>
  </outline>
</glyph>
<glyph name="circumflexhoi.case" format="2">
  <advance width="749"/>
  <outline>
    <contour>
      <point x="718" y="832" type="line"/>
      <point x="777" y="844"/>
      <point x="843" y="870"/>
      <point x="843" y="920" type="curve" smooth="yes"/>
      <point x="843" y="962"/>
      <point x="767" y="966"/>
      <point x="722" y="966" type="curve" smooth="yes"/>
      <point x="677" y="966"/>
      <point x="633" y="961"/>
      <point x="592" y="951" type="curve"/>
      <point x="585" y="885" type="line"/>
      <point x="611" y="892"/>
      <point x="649" y="901"/>
      <point x="678" y="901" type="curve" smooth="yes"/>
      <point x="686" y="901"/>
      <point x="707" y="901"/>
      <point x="707" y="893" type="curve" smooth="yes"/>
      <point x="707" y="875"/>
      <point x="650" y="859"/>
      <point x="630" y="855" type="curve"/>
      <point x="623" y="826" type="line"/>
      <point x="716" y="826" type="line"/>
    </contour>
    <contour>
      <point x="647" y="744" type="line"/>
      <point x="561" y="852" type="line"/>
      <point x="406" y="852" type="line"/>
      <point x="275" y="744" type="line"/>
      <point x="392" y="744" type="line"/>
      <point x="477" y="791" type="line"/>
      <point x="539" y="744" type="line"/>
    </contour>
  </outline>
</glyph>
<glyph name="circumflexhoi" format="2">
  <advance width="587"/>
  <outline>
    <contour>
      <point x="657" y="700" type="line"/>
      <point x="717" y="717"/>
      <point x="790" y="754"/>
      <point x="790" y="825" type="curve" smooth="yes"/>
      <point x="790" y="885"/>
      <point x="718" y="892"/>
      <point x="673" y="892" type="curve" smooth="yes"/>
      <point x="628" y="892"/>
      <point x="584" y="884"/>
      <point x="542" y="870" type="curve"/>
      <point x="529" y="776" type="line"/>
      <point x="556" y="786"/>
      <point x="594" y="799"/>
      <point x="623" y="799" type="curve" smooth="yes"/>
      <point x="631" y="799"/>
      <point x="652" y="799"/>
      <point x="652" y="787" type="curve" smooth="yes"/>
      <point x="652" y="761"/>
      <point x="592" y="739"/>
      <point x="571" y="733" type="curve"/>
      <point x="562" y="691" type="line"/>
      <point x="655" y="691" type="line"/>
    </contour>
    <contour>
      <point x="579" y="574" type="line"/>
      <point x="502" y="728" type="line"/>
      <point x="347" y="728" type="line"/>
      <point x="207" y="574" type="line"/>
      <point x="324" y="574" type="line"/>
      <point x="413" y="641" type="line"/>
      <point x="471" y="574" type="line"/>
    </contour>
  </outline>
</glyph>
<glyph name="circumflextilde.case" format="2">
  <advance width="749"/>
  <outline>
    <contour>
      <point x="429" y="899" type="curve" smooth="yes"/>
      <point x="450" y="899"/>
      <point x="512" y="871"/>
      <point x="557" y="871" type="curve" smooth="yes"/>
      <point x="641" y="871"/>
      <point x="680" y="918"/>
      <point x="698" y="969" type="curve"/>
      <point x="610" y="979" type="line"/>
      <point x="603" y="966"/>
      <point x="591" y="950"/>
      <point x="567" y="950" type="curve" smooth="yes"/>
      <point x="546" y="950"/>
      <point x="485" y="978"/>
      <point x="440" y="978" type="curve" smooth="yes"/>
      <point x="356" y="978"/>
      <point x="317" y="931"/>
      <point x="298" y="880" type="curve"/>
      <point x="386" y="870" type="line"/>
      <point x="393" y="883"/>
      <point x="405" y="899"/>
    </contour>
    <contour>
      <point x="648" y="744" type="line"/>
      <point x="561" y="852" type="line"/>
      <point x="406" y="852" type="line"/>
      <point x="276" y="744" type="line"/>
      <point x="393" y="744" type="line"/>
      <point x="478" y="791" type="line"/>
      <point x="540" y="744" type="line"/>
    </contour>
  </outline>
</glyph>
<glyph name="circumflextilde" format="2">
  <advance width="587"/>
  <outline>
    <contour>
      <point x="374" y="796" type="curve" smooth="yes"/>
      <point x="395" y="796"/>
      <point x="454" y="756"/>
      <point x="499" y="756" type="curve" smooth="yes"/>
      <point x="583" y="756"/>
      <point x="626" y="823"/>
      <point x="649" y="896" type="curve"/>
      <point x="562" y="910" type="line"/>
      <point x="554" y="891"/>
      <point x="540" y="868"/>
      <point x="516" y="868" type="curve" smooth="yes"/>
      <point x="495" y="868"/>
      <point x="437" y="908"/>
      <point x="392" y="908" type="curve" smooth="yes"/>
      <point x="308" y="908"/>
      <point x="264" y="841"/>
      <point x="241" y="768" type="curve"/>
      <point x="328" y="754" type="line"/>
      <point x="336" y="773"/>
      <point x="350" y="796"/>
    </contour>
    <contour>
      <point x="579" y="574" type="line"/>
      <point x="502" y="728" type="line"/>
      <point x="347" y="728" type="line"/>
      <point x="207" y="574" type="line"/>
      <point x="324" y="574" type="line"/>
      <point x="413" y="641" type="line"/>
      <point x="471" y="574" type="line"/>
    </contour>
  </outline>
</glyph>
<glyph name="colon.tf" format="2">
  <advance width="315"/>
  <outline>
    <contour>
      <point x="183" y="313" type="curve" smooth="yes"/>
      <point x="247" y="313"/>
      <point x="308" y="371"/>
      <point x="308" y="440" type="curve" smooth="yes"/>
      <point x="308" y="497"/>
      <point x="266" y="544"/>
      <point x="206" y="544" type="curve" smooth="yes"/>
      <point x="140" y="544"/>
      <point x="77" y="490"/>
      <point x="77" y="419" type="curve" smooth="yes"/>
      <point x="77" y="359"/>
      <point x="119" y="313"/>
    </contour>
    <contour>
      <point x="115" y="-12" type="curve" smooth="yes"/>
      <point x="179" y="-12"/>
      <point x="240" y="46"/>
      <point x="240" y="116" type="curve" smooth="yes"/>
      <point x="240" y="172"/>
      <point x="198" y="219"/>
      <point x="139" y="219" type="curve" smooth="yes"/>
      <point x="72" y="219"/>
      <point x="10" y="165"/>
      <point x="10" y="93" type="curve" smooth="yes"/>
      <point x="10" y="34"/>
      <point x="52" y="-12"/>
    </contour>
  </outline>
</glyph>
<glyph name="comma.tf" format="2">
  <advance width="315"/>
  <outline>
    <contour>
      <point x="64" y="-160" type="line"/>
      <point x="154" y="-95"/>
      <point x="231" y="-6"/>
      <point x="231" y="98" type="curve" smooth="yes"/>
      <point x="231" y="170"/>
      <point x="193" y="219"/>
      <point x="131" y="219" type="curve" smooth="yes"/>
      <point x="68" y="219"/>
      <point x="6" y="159"/>
      <point x="6" y="90" type="curve" smooth="yes"/>
      <point x="6" y="33"/>
      <point x="46" y="-5"/>
      <point x="97" y="-5" type="curve"/>
      <point x="75" y="-38"/>
      <point x="41" y="-75"/>
      <point x="1" y="-102" type="curve"/>
    </contour>
  </outline>
</glyph>
<glyph name="currency.tf" format="2">
  <advance width="700"/>
  <outline>
    <contour>
      <point x="247" y="537" type="line"/>
      <point x="138" y="646" type="line"/>
      <point x="32" y="538" type="line"/>
      <point x="141" y="429" type="line"/>
    </contour>
    <contour>
      <point x="688" y="538" type="line"/>
      <point x="581" y="646" type="line"/>
      <point x="472" y="537" type="line"/>
      <point x="578" y="429" type="line"/>
    </contour>
    <contour>
      <point x="688" y="97" type="line"/>
      <point x="578" y="206" type="line"/>
      <point x="472" y="98" type="line"/>
      <point x="581" y="-11" type="line"/>
    </contour>
    <contour>
      <point x="247" y="98" type="line"/>
      <point x="141" y="206" type="line"/>
      <point x="32" y="97" type="line"/>
      <point x="138" y="-11" type="line"/>
    </contour>
    <contour>
      <point x="359" y="65" type="curve" smooth="yes"/>
      <point x="502" y="65"/>
      <point x="618" y="181"/>
      <point x="618" y="322" type="curve" smooth="yes"/>
      <point x="618" y="464"/>
      <point x="503" y="579"/>
      <point x="359" y="579" type="curve" smooth="yes"/>
      <point x="217" y="579"/>
      <point x="101" y="464"/>
      <point x="101" y="322" type="curve" smooth="yes"/>
      <point x="101" y="181"/>
      <point x="217" y="65"/>
    </contour>
    <contour>
      <point x="359" y="216" type="curve" smooth="yes"/>
      <point x="299" y="216"/>
      <point x="251" y="263"/>
      <point x="251" y="322" type="curve" smooth="yes"/>
      <point x="251" y="381"/>
      <point x="299" y="429"/>
      <point x="359" y="429" type="curve" smooth="yes"/>
      <point x="419" y="429"/>
      <point x="469" y="381"/>
      <point x="469" y="322" type="curve" smooth="yes"/>
      <point x="469" y="263"/>
      <point x="419" y="216"/>
    </contour>
  </outline>
</glyph>
<glyph name="divide.tf" format="2">
  <advance width="700"/>
  <outline>
    <contour>
      <point x="599" y="260" type="line"/>
      <point x="630" y="409" type="line"/>
      <point x="131" y="409" type="line"/>
      <point x="100" y="260" type="line"/>
    </contour>
    <contour>
      <point x="316" y="30" type="curve" smooth="yes"/>
      <point x="370" y="30"/>
      <point x="420" y="79"/>
      <point x="420" y="137" type="curve" smooth="yes"/>
      <point x="420" y="186"/>
      <point x="383" y="226"/>
      <point x="332" y="226" type="curve" smooth="yes"/>
      <point x="277" y="226"/>
      <point x="226" y="184"/>
      <point x="226" y="121" type="curve" smooth="yes"/>
      <point x="226" y="70"/>
      <point x="262" y="30"/>
    </contour>
    <contour>
      <point x="402" y="442" type="curve" smooth="yes"/>
      <point x="456" y="442"/>
      <point x="505" y="490"/>
      <point x="505" y="548" type="curve" smooth="yes"/>
      <point x="505" y="597"/>
      <point x="470" y="638"/>
      <point x="418" y="638" type="curve" smooth="yes"/>
      <point x="364" y="638"/>
      <point x="311" y="596"/>
      <point x="311" y="534" type="curve" smooth="yes"/>
      <point x="311" y="482"/>
      <point x="348" y="442"/>
    </contour>
  </outline>
</glyph>
<glyph name="dollar.tf.rvrn" format="2">
  <advance width="700"/>
  <anchor x="302" y="0" name="bottom"/>
  <anchor x="442" y="687" name="top"/>
  <outline>
    <contour>
      <point x="363" y="-74" type="line"/>
      <point x="387" y="43" type="line"/>
      <point x="277" y="43" type="line"/>
      <point x="253" y="-74" type="line"/>
    </contour>
    <contour>
      <point x="512" y="643" type="line"/>
      <point x="536" y="759" type="line"/>
      <point x="426" y="759" type="line"/>
      <point x="402" y="643" type="line"/>
    </contour>
    <contour>
      <point x="318" y="-12" type="curve" smooth="yes"/>
      <point x="500" y="-12"/>
      <point x="644" y="87"/>
      <point x="644" y="240" type="curve" smooth="yes"/>
      <point x="644" y="349"/>
      <point x="572" y="387"/>
      <point x="412" y="424" type="curve" smooth="yes"/>
      <point x="337" y="441"/>
      <point x="313" y="446"/>
      <point x="313" y="471" type="curve" smooth="yes"/>
      <point x="313" y="500"/>
      <point x="346" y="538"/>
      <point x="413" y="538" type="curve" smooth="yes"/>
      <point x="457" y="538"/>
      <point x="527" y="522"/>
      <point x="584" y="473" type="curve"/>
      <point x="700" y="601" type="line"/>
      <point x="631" y="666"/>
      <point x="535" y="699"/>
      <point x="431" y="699" type="curve" smooth="yes"/>
      <point x="241" y="699"/>
      <point x="115" y="589"/>
      <point x="115" y="448" type="curve" smooth="yes"/>
      <point x="115" y="320"/>
      <point x="218" y="293"/>
      <point x="349" y="260" type="curve" smooth="yes"/>
      <point x="428" y="240"/>
      <point x="447" y="238"/>
      <point x="447" y="216" type="curve" smooth="yes"/>
      <point x="447" y="186"/>
      <point x="410" y="149"/>
      <point x="332" y="149" type="curve" smooth="yes"/>
      <point x="269" y="149"/>
      <point x="194" y="173"/>
      <point x="136" y="228" type="curve"/>
      <point x="10" y="109" type="line"/>
      <point x="81" y="34"/>
      <point x="194" y="-12"/>
    </contour>
  </outline>
</glyph>
<glyph name="dong.tf" format="2">
  <advance width="700"/>
  <outline>
    <contour>
      <point x="565" y="-61" type="line"/>
      <point x="18" y="-61" type="line"/>
      <point x="-3" y="-159" type="line"/>
      <point x="544" y="-159" type="line"/>
    </contour>
    <contour>
      <point x="713" y="699" type="line"/>
      <point x="520" y="699" type="line"/>
      <point x="511" y="655" type="line"/>
      <point x="370" y="655" type="line"/>
      <point x="351" y="565" type="line"/>
      <point x="492" y="565" type="line"/>
      <point x="468" y="446" type="line"/>
      <point x="431" y="504"/>
      <point x="375" y="529"/>
      <point x="307" y="529" type="curve" smooth="yes"/>
      <point x="132" y="529"/>
      <point x="21" y="363"/>
      <point x="21" y="200" type="curve" smooth="yes"/>
      <point x="21" y="77"/>
      <point x="92" y="-12"/>
      <point x="219" y="-12" type="curve" smooth="yes"/>
      <point x="282" y="-12"/>
      <point x="339" y="10"/>
      <point x="386" y="52" type="curve"/>
      <point x="375" y="0" type="line"/>
      <point x="568" y="0" type="line"/>
      <point x="685" y="565" type="line"/>
      <point x="741" y="565" type="line"/>
      <point x="760" y="655" type="line"/>
      <point x="704" y="655" type="line"/>
    </contour>
    <contour>
      <point x="205" y="221" type="curve" smooth="yes"/>
      <point x="205" y="303"/>
      <point x="280" y="369"/>
      <point x="360" y="369" type="curve" smooth="yes"/>
      <point x="404" y="369"/>
      <point x="434" y="343"/>
      <point x="434" y="298" type="curve" smooth="yes"/>
      <point x="434" y="221"/>
      <point x="367" y="148"/>
      <point x="289" y="148" type="curve" smooth="yes"/>
      <point x="242" y="148"/>
      <point x="205" y="171"/>
    </contour>
  </outline>
</glyph>
<glyph name="eight.tf" format="2">
  <advance width="700"/>
  <outline>
    <contour>
      <point x="305" y="-12" type="curve" smooth="yes"/>
      <point x="469" y="-12"/>
      <point x="628" y="60"/>
      <point x="628" y="210" type="curve" smooth="yes"/>
      <point x="628" y="273"/>
      <point x="593" y="322"/>
      <point x="537" y="349" type="curve"/>
      <point x="622" y="386"/>
      <point x="677" y="442"/>
      <point x="677" y="531" type="curve" smooth="yes"/>
      <point x="677" y="637"/>
      <point x="567" y="699"/>
      <point x="428" y="699" type="curve" smooth="yes"/>
      <point x="280" y="699"/>
      <point x="126" y="630"/>
      <point x="126" y="486" type="curve" smooth="yes"/>
      <point x="126" y="423"/>
      <point x="160" y="383"/>
      <point x="202" y="361" type="curve"/>
      <point x="110" y="325"/>
      <point x="41" y="261"/>
      <point x="41" y="164" type="curve" smooth="yes"/>
      <point x="41" y="51"/>
      <point x="156" y="-12"/>
    </contour>
    <contour>
      <point x="314" y="148" type="curve" smooth="yes"/>
      <point x="267" y="148"/>
      <point x="239" y="161"/>
      <point x="239" y="185" type="curve" smooth="yes"/>
      <point x="239" y="232"/>
      <point x="305" y="269"/>
      <point x="364" y="272" type="curve"/>
      <point x="405" y="270"/>
      <point x="440" y="256"/>
      <point x="440" y="232" type="curve" smooth="yes"/>
      <point x="440" y="185"/>
      <point x="376" y="148"/>
    </contour>
    <contour>
      <point x="370" y="420" type="curve"/>
      <point x="335" y="422"/>
      <point x="309" y="436"/>
      <point x="309" y="459" type="curve" smooth="yes"/>
      <point x="309" y="502"/>
      <point x="363" y="540"/>
      <point x="420" y="540" type="curve" smooth="yes"/>
      <point x="461" y="540"/>
      <point x="484" y="526"/>
      <point x="484" y="505" type="curve" smooth="yes"/>
      <point x="484" y="463"/>
      <point x="425" y="423"/>
    </contour>
  </outline>
</glyph>
<glyph name="equal.tf" format="2">
  <advance width="700"/>
  <outline>
    <contour>
      <point x="625" y="382" type="line"/>
      <point x="656" y="531" type="line"/>
      <point x="157" y="531" type="line"/>
      <point x="126" y="382" type="line"/>
    </contour>
    <contour>
      <point x="576" y="148" type="line"/>
      <point x="607" y="297" type="line"/>
      <point x="108" y="297" type="line"/>
      <point x="77" y="148" type="line"/>
    </contour>
  </outline>
</glyph>
<glyph name="five.tf" format="2">
  <advance width="700"/>
  <outline>
    <contour>
      <point x="296" y="-13" type="curve" smooth="yes"/>
      <point x="484" y="-13"/>
      <point x="631" y="97"/>
      <point x="631" y="274" type="curve" smooth="yes"/>
      <point x="631" y="389"/>
      <point x="545" y="454"/>
      <point x="434" y="454" type="curve" smooth="yes"/>
      <point x="389" y="454"/>
      <point x="346" y="443"/>
      <point x="309" y="420" type="curve"/>
      <point x="337" y="514" type="line"/>
      <point x="648" y="514" type="line"/>
      <point x="684" y="687" type="line"/>
      <point x="195" y="687" type="line"/>
      <point x="106" y="304" type="line"/>
      <point x="227" y="251" type="line"/>
      <point x="265" y="277"/>
      <point x="310" y="296"/>
      <point x="364" y="296" type="curve" smooth="yes"/>
      <point x="412" y="296"/>
      <point x="438" y="281"/>
      <point x="438" y="253" type="curve" smooth="yes"/>
      <point x="438" y="199"/>
      <point x="375" y="154"/>
      <point x="306" y="154" type="curve" smooth="yes"/>
      <point x="253" y="154"/>
      <point x="199" y="178"/>
      <point x="157" y="221" type="curve"/>
      <point x="27" y="95" type="line"/>
      <point x="86" y="31"/>
      <point x="169" y="-13"/>
    </contour>
  </outline>
</glyph>
<glyph name="four.tf" format="2">
  <advance width="700"/>
  <outline>
    <contour>
      <point x="524" y="0" type="line"/>
      <point x="550" y="122" type="line"/>
      <point x="633" y="122" type="line"/>
      <point x="666" y="282" type="line"/>
      <point x="583" y="282" type="line"/>
      <point x="667" y="687" type="line"/>
      <point x="427" y="687" type="line"/>
      <point x="38" y="268" type="line"/>
      <point x="26" y="122" type="line"/>
      <point x="356" y="122" type="line"/>
      <point x="330" y="0" type="line"/>
    </contour>
    <contour>
      <point x="434" y="488" type="line"/>
      <point x="389" y="282" type="line"/>
      <point x="244" y="282" type="line"/>
    </contour>
  </outline>
</glyph>
<glyph name="greater.tf" format="2">
  <advance width="700"/>
  <outline>
    <contour>
      <point x="602" y="267" type="line"/>
      <point x="632" y="420" type="line"/>
      <point x="196" y="609" type="line"/>
      <point x="167" y="459" type="line"/>
      <point x="473" y="343" type="line"/>
      <point x="118" y="229" type="line"/>
      <point x="88" y="78" type="line"/>
    </contour>
  </outline>
</glyph>
<glyph name="hyphen.tf" format="2">
  <advance width="355"/>
  <outline>
    <contour>
      <point x="307" y="199" type="line"/>
      <point x="340" y="357" type="line"/>
      <point x="56" y="357" type="line"/>
      <point x="23" y="199" type="line"/>
    </contour>
  </outline>
</glyph>
<glyph name="k_arms" format="2">
  <advance width="409"/>
  <anchor x="6" y="108" name="k_arms"/>
  <outline>
    <contour>
      <point x="341" y="0" type="line"/>
      <point x="220" y="294" type="line"/>
      <point x="449" y="517" type="line"/>
      <point x="229" y="517" type="line"/>
      <point x="47" y="324" type="line"/>
      <point x="6" y="108" type="line"/>
      <point x="73" y="171" type="line"/>
      <point x="130" y="0" type="line"/>
    </contour>
  </outline>
</glyph>
<glyph name="less.tf" format="2">
  <advance width="700"/>
  <outline>
    <contour>
      <point x="568" y="229" type="line"/>
      <point x="262" y="343" type="line"/>
      <point x="618" y="459" type="line"/>
      <point x="647" y="609" type="line"/>
      <point x="133" y="420" type="line"/>
      <point x="103" y="267" type="line"/>
      <point x="538" y="78" type="line"/>
    </contour>
  </outline>
</glyph>
<glyph name="lowercase_m_shoulder" format="2">
  <advance width="477"/>
  <anchor x="75" y="282" name="_shoulder"/>
  <anchor x="406" y="282" name="shoulder"/>
  <outline>
    <contour>
      <point x="347" y="0" type="line"/>
      <point x="413" y="318"/>
      <point x="419" y="337"/>
      <point x="419" y="365" type="curve" smooth="yes"/>
      <point x="419" y="461"/>
      <point x="347" y="530"/>
      <point x="250" y="530" type="curve" smooth="yes"/>
      <point x="165" y="530"/>
      <point x="98" y="476"/>
      <point x="80" y="388" type="curve"/>
      <point x="78" y="293" type="line"/>
      <point x="85" y="331"/>
      <point x="129" y="370"/>
      <point x="180" y="370" type="curve" smooth="yes"/>
      <point x="220" y="370"/>
      <point x="226" y="345"/>
      <point x="228" y="323" type="curve" smooth="yes"/>
      <point x="229" y="312"/>
      <point x="210" y="227"/>
      <point x="163" y="0" type="curve"/>
    </contour>
  </outline>
  <guideline angle="0" x="0" y="0"/>
</glyph>
<glyph name="lowercase_r_shoulder" format="2">
  <advance width="271"/>
  <anchor x="59" y="211" name="_r_shoulder"/>
  <outline>
    <contour>
      <point x="59" y="211" type="line"/>
      <point x="79" y="305"/>
      <point x="158" y="369"/>
      <point x="260" y="369" type="curve"/>
      <point x="281" y="529" type="line"/>
      <point x="167" y="529"/>
      <point x="72" y="433"/>
      <point x="42" y="287" type="curve"/>
    </contour>
  </outline>
</glyph>
<glyph name="minus.tf" format="2">
  <advance width="700"/>
  <outline>
    <contour>
      <point x="599" y="259" type="line"/>
      <point x="630" y="408" type="line"/>
      <point x="131" y="408" type="line"/>
      <point x="100" y="259" type="line"/>
    </contour>
  </outline>
</glyph>
<glyph name="multiply.tf" format="2">
  <advance width="700"/>
  <outline>
    <contour>
      <point x="621" y="457" type="line"/>
      <point x="532" y="563" type="line"/>
      <point x="110" y="210" type="line"/>
      <point x="199" y="104" type="line"/>
    </contour>
    <contour>
      <point x="574" y="214" type="line"/>
      <point x="290" y="567" type="line"/>
      <point x="158" y="454" type="line"/>
      <point x="442" y="101" type="line"/>
    </contour>
  </outline>
</glyph>
<glyph name="nine.tf" format="2">
  <advance width="700"/>
  <outline>
    <contour>
      <point x="408" y="699" type="curve" smooth="yes"/>
      <point x="235" y="699"/>
      <point x="89" y="580"/>
      <point x="89" y="416" type="curve" smooth="yes"/>
      <point x="89" y="303"/>
      <point x="174" y="233"/>
      <point x="292" y="233" type="curve" smooth="yes"/>
      <point x="362" y="233"/>
      <point x="445" y="261"/>
      <point x="491" y="310" type="curve"/>
      <point x="508" y="514" type="line"/>
      <point x="491" y="445"/>
      <point x="428" y="388"/>
      <point x="361" y="388" type="curve" smooth="yes"/>
      <point x="322" y="388"/>
      <point x="290" y="403"/>
      <point x="290" y="435" type="curve" smooth="yes"/>
      <point x="290" y="488"/>
      <point x="348" y="535"/>
      <point x="411" y="535" type="curve" smooth="yes"/>
      <point x="461" y="535"/>
      <point x="480" y="518"/>
      <point x="480" y="473" type="curve" smooth="yes"/>
      <point x="480" y="325"/>
      <point x="404" y="157"/>
      <point x="265" y="157" type="curve" smooth="yes"/>
      <point x="219" y="157"/>
      <point x="185" y="169"/>
      <point x="150" y="199" type="curve"/>
      <point x="41" y="61" type="line"/>
      <point x="95" y="18"/>
      <point x="163" y="-12"/>
      <point x="257" y="-12" type="curve" smooth="yes"/>
      <point x="503" y="-12"/>
      <point x="671" y="196"/>
      <point x="671" y="447" type="curve" smooth="yes"/>
      <point x="671" y="599"/>
      <point x="586" y="699"/>
    </contour>
  </outline>
</glyph>
<glyph name="one.tf" format="2">
  <advance width="700"/>
  <outline>
    <contour>
      <point x="458" y="0" type="line"/>
      <point x="601" y="687" type="line"/>
      <point x="445" y="687" type="line"/>
      <point x="185" y="533" type="line"/>
      <point x="236" y="399" type="line"/>
      <point x="363" y="469" type="line"/>
      <point x="264" y="0" type="line"/>
    </contour>
  </outline>
</glyph>
<glyph name="period.tf" format="2">
  <advance width="315"/>
  <outline>
    <contour>
      <point x="115" y="-12" type="curve" smooth="yes"/>
      <point x="179" y="-12"/>
      <point x="240" y="46"/>
      <point x="240" y="116" type="curve" smooth="yes"/>
      <point x="240" y="172"/>
      <point x="198" y="219"/>
      <point x="139" y="219" type="curve" smooth="yes"/>
      <point x="72" y="219"/>
      <point x="10" y="165"/>
      <point x="10" y="93" type="curve" smooth="yes"/>
      <point x="10" y="34"/>
      <point x="52" y="-12"/>
    </contour>
  </outline>
</glyph>
<glyph name="plus.tf" format="2">
  <advance width="700"/>
  <outline>
    <contour>
      <point x="599" y="259" type="line"/>
      <point x="630" y="408" type="line"/>
      <point x="131" y="408" type="line"/>
      <point x="100" y="259" type="line"/>
    </contour>
    <contour>
      <point x="394" y="84" type="line"/>
      <point x="498" y="583" type="line"/>
      <point x="338" y="583" type="line"/>
      <point x="234" y="84" type="line"/>
    </contour>
  </outline>
</glyph>
<glyph name="ringacute.case" format="2">
  <advance width="283"/>
  <anchor x="94" y="534" name="_top"/>
  <anchor x="71" y="796" name="top"/>
  <outline>
    <contour>
      <point x="107" y="576" type="curve" smooth="yes"/>
      <point x="182" y="576"/>
      <point x="252" y="623"/>
      <point x="247" y="678" type="curve" smooth="yes"/>
      <point x="243" y="716"/>
      <point x="200" y="745"/>
      <point x="142" y="745" type="curve" smooth="yes"/>
      <point x="68" y="745"/>
      <point x="-3" y="698"/>
      <point x="2" y="643" type="curve" smooth="yes"/>
      <point x="5" y="604"/>
      <point x="49" y="576"/>
    </contour>
    <contour>
      <point x="117" y="626" type="curve" smooth="yes"/>
      <point x="93" y="626"/>
      <point x="76" y="638"/>
      <point x="75" y="654" type="curve" smooth="yes"/>
      <point x="73" y="676"/>
      <point x="101" y="695"/>
      <point x="131" y="695" type="curve" smooth="yes"/>
      <point x="154" y="695"/>
      <point x="172" y="683"/>
      <point x="174" y="667" type="curve" smooth="yes"/>
      <point x="176" y="646"/>
      <point x="147" y="626"/>
    </contour>
    <contour>
      <point x="161" y="705" type="line"/>
      <point x="333" y="800" type="line"/>
      <point x="166" y="820" type="line"/>
      <point x="30" y="705" type="line"/>
    </contour>
  </outline>
</glyph>
<glyph name="semicolon.tf" format="2">
  <advance width="315"/>
  <outline>
    <contour>
      <point x="181" y="313" type="curve" smooth="yes"/>
      <point x="245" y="313"/>
      <point x="306" y="371"/>
      <point x="306" y="441" type="curve" smooth="yes"/>
      <point x="306" y="497"/>
      <point x="264" y="544"/>
      <point x="205" y="544" type="curve" smooth="yes"/>
      <point x="138" y="544"/>
      <point x="76" y="490"/>
      <point x="76" y="418" type="curve" smooth="yes"/>
      <point x="76" y="359"/>
      <point x="118" y="313"/>
    </contour>
    <contour>
      <point x="65" y="-160" type="line"/>
      <point x="155" y="-95"/>
      <point x="232" y="-6"/>
      <point x="232" y="98" type="curve" smooth="yes"/>
      <point x="232" y="170"/>
      <point x="194" y="219"/>
      <point x="132" y="219" type="curve" smooth="yes"/>
      <point x="69" y="219"/>
      <point x="7" y="159"/>
      <point x="7" y="90" type="curve" smooth="yes"/>
      <point x="7" y="33"/>
      <point x="47" y="-5"/>
      <point x="98" y="-5" type="curve"/>
      <point x="76" y="-38"/>
      <point x="42" y="-75"/>
      <point x="2" y="-102" type="curve"/>
    </contour>
  </outline>
</glyph>
<glyph name="seven.tf" format="2">
  <advance width="700"/>
  <outline>
    <contour>
      <point x="304" y="0" type="line"/>
      <point x="681" y="541" type="line"/>
      <point x="709" y="687" type="line"/>
      <point x="167" y="687" type="line"/>
      <point x="131" y="514" type="line"/>
      <point x="448" y="514" type="line"/>
      <point x="81" y="0" type="line"/>
    </contour>
  </outline>
</glyph>
<glyph name="six.tf" format="2">
  <advance width="700"/>
  <outline>
    <contour>
      <point x="327" y="-12" type="curve" smooth="yes"/>
      <point x="500" y="-12"/>
      <point x="646" y="107"/>
      <point x="646" y="271" type="curve" smooth="yes"/>
      <point x="646" y="384"/>
      <point x="561" y="454"/>
      <point x="443" y="454" type="curve" smooth="yes"/>
      <point x="373" y="454"/>
      <point x="290" y="426"/>
      <point x="244" y="377" type="curve"/>
      <point x="227" y="173" type="line"/>
      <point x="244" y="242"/>
      <point x="307" y="299"/>
      <point x="374" y="299" type="curve" smooth="yes"/>
      <point x="413" y="299"/>
      <point x="445" y="284"/>
      <point x="445" y="252" type="curve" smooth="yes"/>
      <point x="445" y="199"/>
      <point x="387" y="152"/>
      <point x="324" y="152" type="curve" smooth="yes"/>
      <point x="274" y="152"/>
      <point x="255" y="169"/>
      <point x="255" y="214" type="curve" smooth="yes"/>
      <point x="255" y="362"/>
      <point x="331" y="530"/>
      <point x="470" y="530" type="curve" smooth="yes"/>
      <point x="516" y="530"/>
      <point x="550" y="518"/>
      <point x="585" y="488" type="curve"/>
      <point x="694" y="626" type="line"/>
      <point x="640" y="669"/>
      <point x="572" y="699"/>
      <point x="478" y="699" type="curve" smooth="yes"/>
      <point x="232" y="699"/>
      <point x="64" y="491"/>
      <point x="64" y="240" type="curve" smooth="yes"/>
      <point x="64" y="88"/>
      <point x="149" y="-12"/>
    </contour>
  </outline>
</glyph>
<glyph name="sterling.tf" format="2">
  <advance width="700"/>
  <outline>
    <contour>
      <point x="602" y="0" type="line"/>
      <point x="632" y="143" type="line"/>
      <point x="257" y="143" type="line"/>
      <point x="303" y="87" type="line"/>
      <point x="373" y="435" type="line" smooth="yes"/>
      <point x="383" y="482"/>
      <point x="431" y="523"/>
      <point x="485" y="523" type="curve" smooth="yes"/>
      <point x="513" y="523"/>
      <point x="544" y="505"/>
      <point x="556" y="470" type="curve"/>
      <point x="699" y="579" type="line"/>
      <point x="662" y="646"/>
      <point x="570" y="699"/>
      <point x="470" y="699" type="curve" smooth="yes"/>
      <point x="331" y="699"/>
      <point x="215" y="609"/>
      <point x="186" y="471" type="curve" smooth="yes"/>
      <point x="117" y="143" type="line"/>
      <point x="3" y="76" type="line"/>
      <point x="-11" y="0" type="line"/>
    </contour>
    <contour>
      <point x="471" y="250" type="line"/>
      <point x="490" y="337" type="line"/>
      <point x="85" y="337" type="line"/>
      <point x="66" y="250" type="line"/>
    </contour>
  </outline>
</glyph>
<glyph name="thorn_stem" format="2">
  <advance width="308"/>
  <anchor x="248" y="247" name="loop_right"/>
  <outline>
    <contour>
      <point x="161" y="-172" type="line"/>
      <point x="342" y="699" type="line"/>
      <point x="149" y="699" type="line"/>
      <point x="-32" y="-172" type="line"/>
    </contour>
  </outline>
</glyph>
<glyph name="three.tf" format="2">
  <advance width="700"/>
  <outline>
    <contour>
      <point x="301" y="-13" type="curve" smooth="yes"/>
      <point x="464" y="-13"/>
      <point x="615" y="73"/>
      <point x="615" y="216" type="curve" smooth="yes"/>
      <point x="615" y="289"/>
      <point x="565" y="336"/>
      <point x="505" y="350" type="curve"/>
      <point x="600" y="377"/>
      <point x="665" y="439"/>
      <point x="665" y="532" type="curve" smooth="yes"/>
      <point x="665" y="629"/>
      <point x="580" y="699"/>
      <point x="423" y="699" type="curve" smooth="yes"/>
      <point x="298" y="699"/>
      <point x="204" y="652"/>
      <point x="130" y="583" type="curve"/>
      <point x="220" y="453" type="line"/>
      <point x="271" y="494"/>
      <point x="328" y="526"/>
      <point x="391" y="526" type="curve" smooth="yes"/>
      <point x="441" y="526"/>
      <point x="467" y="515"/>
      <point x="462" y="488" type="curve" smooth="yes"/>
      <point x="454" y="450"/>
      <point x="414" y="425"/>
      <point x="350" y="425" type="curve" smooth="yes"/>
      <point x="274" y="425" type="line"/>
      <point x="240" y="263" type="line"/>
      <point x="330" y="264" type="line" smooth="yes"/>
      <point x="403" y="265"/>
      <point x="422" y="257"/>
      <point x="422" y="237" type="curve" smooth="yes"/>
      <point x="422" y="192"/>
      <point x="365" y="160"/>
      <point x="301" y="160" type="curve" smooth="yes"/>
      <point x="249" y="160"/>
      <point x="190" y="177"/>
      <point x="149" y="225" type="curve"/>
      <point x="22" y="106" type="line"/>
      <point x="74" y="38"/>
      <point x="164" y="-13"/>
    </contour>
  </outline>
</glyph>
<glyph name="two.tf" format="2">
  <advance width="700"/>
  <outline>
    <contour>
      <point x="570" y="0" type="line"/>
      <point x="606" y="173" type="line"/>
      <point x="355" y="173" type="line"/>
      <point x="460" y="226" type="line"/>
      <point x="582" y="296"/>
      <point x="664" y="374"/>
      <point x="664" y="502" type="curve" smooth="yes"/>
      <point x="664" y="617"/>
      <point x="573" y="699"/>
      <point x="424" y="699" type="curve" smooth="yes"/>
      <point x="317" y="699"/>
      <point x="217" y="659"/>
      <point x="123" y="569" type="curve"/>
      <point x="226" y="437" type="line"/>
      <point x="288" y="490"/>
      <point x="342" y="523"/>
      <point x="408" y="523" type="curve" smooth="yes"/>
      <point x="442" y="523"/>
      <point x="464" y="510"/>
      <point x="464" y="485" type="curve" smooth="yes"/>
      <point x="464" y="432"/>
      <point x="405" y="385"/>
      <point x="342" y="345" type="curve" smooth="yes"/>
      <point x="51" y="157" type="line"/>
      <point x="21" y="0" type="line"/>
    </contour>
  </outline>
</glyph>
<glyph name="yen.tf" format="2">
  <advance width="700"/>
  <anchor x="420" y="687" name="top"/>
  <outline>
    <contour>
      <point x="570" y="90" type="line"/>
      <point x="588" y="177" type="line"/>
      <point x="92" y="177" type="line"/>
      <point x="74" y="90" type="line"/>
    </contour>
    <contour>
      <point x="599" y="230" type="line"/>
      <point x="617" y="317" type="line"/>
      <point x="121" y="317" type="line"/>
      <point x="103" y="230" type="line"/>
    </contour>
    <contour>
      <point x="390" y="0" type="line"/>
      <point x="440" y="226" type="line"/>
      <point x="799" y="687" type="line"/>
      <point x="581" y="687" type="line"/>
      <point x="364" y="394" type="line"/>
      <point x="258" y="687" type="line"/>
      <point x="78" y="687" type="line"/>
      <point x="246" y="226" type="line"/>
      <point x="196" y="0" type="line"/>
    </contour>
  </outline>
</glyph>
<glyph name="zero.tf" format="2">
  <advance width="700"/>
  <outline>
    <contour>
      <point x="305" y="-12" type="curve" smooth="yes"/>
      <point x="530" y="-12"/>
      <point x="698" y="194"/>
      <point x="698" y="422" type="curve" smooth="yes"/>
      <point x="698" y="588"/>
      <point x="595" y="699"/>
      <point x="428" y="699" type="curve" smooth="yes"/>
      <point x="204" y="699"/>
      <point x="36" y="494"/>
      <point x="36" y="265" type="curve" smooth="yes"/>
      <point x="36" y="99"/>
      <point x="139" y="-12"/>
    </contour>
    <contour>
      <point x="317" y="164" type="curve" smooth="yes"/>
      <point x="264" y="164"/>
      <point x="234" y="206"/>
      <point x="234" y="273" type="curve" smooth="yes"/>
      <point x="234" y="388"/>
      <point x="313" y="523"/>
      <point x="417" y="523" type="curve" smooth="yes"/>
      <point x="470" y="523"/>
      <point x="500" y="481"/>
      <point x="500" y="414" type="curve" smooth="yes"/>
      <point x="500" y="300"/>
      <point x="420" y="164"/>
    </contour>
  </outline>
</glyph>
